<svg width="90" height="90" viewBox="0 0 90 90" fill="none" xmlns="http://www.w3.org/2000/svg">
<path d="M50.7237 18.9473C45.4919 18.9473 41.25 23.1891 41.25 28.4209C41.25 33.6528 45.4919 37.8946 50.7237 37.8946C55.9555 37.8946 60.1974 33.6528 60.1974 28.4209C60.192 23.1907 55.9539 18.9527 50.7237 18.9473ZM57.0395 28.4209C57.031 28.7386 56.9986 29.0555 56.9431 29.3685C56.1621 28.2984 55.3002 27.2899 54.3665 26.3509C52.8053 24.7989 51.0498 23.4551 49.1447 22.3534V22.3295C49.659 22.1869 50.1902 22.1121 50.7237 22.1052C54.2116 22.1052 57.0395 24.9331 57.0395 28.4209ZM50.7237 34.7367C47.2358 34.7367 44.4079 31.9088 44.4079 28.4209C44.4141 27.3092 44.7178 26.2191 45.286 25.2631H47.5658C47.6429 25.2538 47.72 25.2384 47.7948 25.2176C50.8825 27.0548 53.4791 29.6136 55.3611 32.6744C54.1745 33.9843 52.4907 34.7329 50.7237 34.7367Z" fill="white"/>
<path d="M74.7741 7.40209C74.5081 3.24424 71.0611 0.00616776 66.8956 0H23.8816C23.0096 0 22.3026 0.70698 22.3026 1.57895V7.89474C22.3026 8.7667 23.0096 9.47368 23.8816 9.47368V22.345C16.0632 26.849 11.2461 35.1871 11.25 44.2105V58.4211C11.2901 67.4337 16.0948 75.7532 23.8816 80.2912L22.8284 83.4414C22.665 83.9425 22.581 84.4668 22.5786 84.9949C22.584 87.7542 24.8175 89.9908 27.5761 90H45.4502C47.0569 89.9985 48.565 89.2267 49.5056 87.9238C50.4461 86.6208 50.7044 84.9463 50.1994 83.4205L49.1447 80.2896C56.9315 75.7525 61.737 67.4337 61.7763 58.4211V44.2105C61.7632 42.8043 61.6391 41.4003 61.4055 40.0134C62.6367 38.8839 63.6822 37.5655 64.5017 36.1092L69.3287 74.7209C69.6579 77.299 71.9724 79.1525 74.5605 78.9104C77.1487 78.6683 79.0792 76.4186 78.925 73.8235L74.7741 7.40209ZM49.1447 3.15789H60.3824L60.7771 6.31579H49.1447V3.15789ZM25.4605 3.15789H45.9868V8.1029L43.7055 6.581C43.4457 6.40831 43.1404 6.31656 42.8289 6.31579H25.4605V3.15789ZM42.3556 9.47368L45.9868 11.8976V13.3594C41.6386 14.741 38.0952 17.9274 36.2618 22.1053H27.0395V9.47368H42.3556ZM58.6184 54.1799C53.8777 55.9447 48.8587 56.8467 43.8004 56.8421H29.2259C24.1676 56.8467 19.1486 55.9447 14.4079 54.1799V51.2179C19.1763 52.8554 24.1846 53.6888 29.2259 53.6842H43.8004C48.8417 53.6888 53.85 52.8554 58.6184 51.2179V54.1799ZM47.0924 85.8221C46.7825 86.4458 46.1464 86.8413 45.4502 86.8421H27.5761C26.5568 86.8398 25.7319 86.0141 25.7288 84.9949C25.7304 84.8006 25.762 84.6078 25.8221 84.4228L26.5977 82.1053H27.7503C33.4023 84.2108 39.624 84.2108 45.276 82.1053H46.4286L47.2042 84.4228C47.3584 84.8846 47.3206 85.3888 47.1001 85.8221H47.0924ZM44.441 79.0545C37.6442 81.6658 29.9969 80.763 23.9957 76.6399C17.9945 72.5167 14.4079 65.7021 14.4079 58.4211V57.5306C19.1763 59.1689 24.1838 60.0039 29.2259 60H43.8004C48.8425 60.0039 53.85 59.1689 58.6184 57.5306V58.4211C58.5853 67.5578 52.9641 75.7424 44.4488 79.0545H44.441ZM58.6184 44.2105V47.8518C53.8785 49.6212 48.8595 50.5271 43.8004 50.5263H29.2259C24.1668 50.5271 19.1478 49.6212 14.4079 47.8518V44.2105C14.404 36.4129 18.5149 29.192 25.2223 25.2146C25.3002 25.2377 25.3796 25.2539 25.4605 25.2632H35.2503C34.0006 31.3322 36.4206 37.5702 41.4366 41.2084C46.4517 44.8466 53.1337 45.2097 58.5143 42.1374C58.5791 42.8367 58.6184 43.5298 58.6184 44.2105ZM50.7237 41.0526C43.7472 41.0526 38.0921 35.3976 38.0921 28.4211C38.0921 21.4445 43.7472 15.7895 50.7237 15.7895C57.7002 15.7895 63.3553 21.4445 63.3553 28.4211C63.3476 35.3937 57.6963 41.0449 50.7237 41.0526ZM50.7237 12.6316C50.1963 12.6323 49.669 12.6586 49.1447 12.7118V9.47368H61.1719L62.1865 17.5974C59.2159 14.4303 55.0666 12.6323 50.7237 12.6316ZM75.3253 75.2652C74.8836 75.7355 74.2098 75.9082 73.5968 75.7078C72.9831 75.5081 72.5414 74.9707 72.4627 74.3308L63.565 3.15789H66.8956C69.3958 3.15789 71.4659 5.10228 71.6224 7.59791L75.7741 74.0209C75.8049 74.4804 75.6422 74.9314 75.3253 75.2652Z" fill="white"/>
<path d="M34.9346 63.158H38.0925V66.3159H34.9346V63.158Z" fill="white"/>
<path d="M41.25 63.158H44.4079V66.3159H41.25V63.158Z" fill="white"/>
<path d="M47.5654 63.158H50.7233V66.3159H47.5654V63.158Z" fill="white"/>
</svg>
