<svg width="90" height="90" viewBox="0 0 90 90" fill="none" xmlns="http://www.w3.org/2000/svg">
<path d="M74.2839 18.8016H70.2531V9.67535C70.2531 8.85779 69.5906 8.1951 68.7728 8.1951H54.9564C54.1387 8.1951 53.4762 8.85797 53.4762 9.67535V18.8014H50.1644V9.67535C50.1644 8.85779 49.5019 8.1951 48.6842 8.1951H43.2564V4.8208C43.2561 2.16264 41.0936 0 38.4354 0H25.027C22.3687 0 20.2062 2.16264 20.2062 4.8208V8.1951H14.7784C13.9607 8.1951 13.2982 8.85797 13.2982 9.67535V21.4884H12.1219C11.3041 21.4884 10.6416 22.1513 10.6416 22.9686V30.9625C10.6416 31.78 11.3041 32.4427 12.1219 32.4427H13.2982V57.5568H12.1226C11.3048 57.5568 10.6423 58.2196 10.6423 59.037V67.0303C10.6423 67.8479 11.3048 68.5106 12.1226 68.5106H13.2982V80.3241C13.2982 81.1417 13.9607 81.8044 14.7784 81.8044H28.5948C29.4126 81.8044 30.0751 81.1415 30.0751 80.3241V68.5107H33.387V80.3243C33.387 81.1419 34.0495 81.8046 34.8672 81.8046H40.2947V85.1794C40.2947 87.8375 42.4571 89.9998 45.1155 89.9998H58.5239C61.1822 89.9998 63.3447 87.8374 63.3447 85.1794V81.8046H68.7728C69.5906 81.8046 70.2531 81.1417 70.2531 80.3243V68.5107H71.4289C72.2466 68.5107 72.9091 67.8479 72.9091 67.0305V59.0372C72.9091 58.2196 72.2466 57.5569 71.4289 57.5569H70.2531V46.3764H74.2839C77.0816 46.3764 79.3578 44.1002 79.3578 41.3024V23.8753C79.3578 21.0776 77.0816 18.8016 74.2839 18.8016ZM56.4367 11.1558H67.2924V18.8016H56.4367V11.1558ZM47.2036 11.1558V18.8016H43.2975C41.3622 18.8016 39.6771 19.8911 38.8216 21.4884H36.3479V11.1558H47.2036ZM43.2975 46.3765H47.2036V57.5568H36.3479V32.4427H38.2236V41.3026C38.2236 44.1005 40.4998 46.3765 43.2975 46.3765ZM25.027 2.96068H38.4354C39.4609 2.96068 40.2955 3.79512 40.2955 4.8208V8.1951H34.8676C34.0499 8.1951 33.3873 8.85797 33.3873 9.67535V21.4884H30.0755V9.67535C30.0755 8.85779 29.4129 8.1951 28.5952 8.1951H23.1674V4.8208H23.1672C23.1669 3.79512 24.0013 2.96068 25.027 2.96068ZM16.2587 11.1558H27.1144V21.4884H16.2587V11.1558ZM13.6023 24.4491H38.2236V29.4822H13.6023V24.4491ZM33.3873 32.4427V57.5568H30.0755V32.4427H33.3873ZM27.1144 32.4427V57.5568H16.2587V32.4427H27.1144ZM27.1144 78.844H16.2587V68.5107H27.1144V78.844ZM36.3479 78.844V68.5107H47.2036V78.844H36.3479ZM58.5241 87.0393H45.1156C44.0901 87.0393 43.2555 86.2049 43.2555 85.1794V81.8046H48.6838C49.5016 81.8046 50.1641 81.1417 50.1641 80.3243V68.5107H53.4758V80.3243C53.4758 81.1419 54.1383 81.8046 54.9561 81.8046H60.3837V85.1794H60.3838C60.384 86.2051 59.5496 87.0393 58.5241 87.0393ZM67.2924 78.844H56.4367V68.5107H67.2924V78.844ZM69.9486 65.5502H13.6028V60.5174H69.9484V65.5502H69.9486ZM50.1643 57.5568V46.3764H53.476V57.5568H50.1643ZM56.4367 57.5568V46.3764H67.2924V57.5568H56.4367ZM76.3971 41.3026C76.3971 42.4679 75.4492 43.4159 74.2839 43.4159H43.2975C42.1323 43.4159 41.1843 42.4679 41.1843 41.3026V23.8755C41.1843 22.7102 42.1323 21.7622 43.2975 21.7622H74.2839C75.4492 21.7622 76.3971 22.7102 76.3971 23.8755V41.3026Z" fill="white"/>
<path d="M72.9431 23.7358H44.6385C43.8207 23.7358 43.1582 24.3987 43.1582 25.2161V39.9617C43.1582 40.7792 43.8207 41.4419 44.6385 41.4419H72.9433C73.761 41.4419 74.4235 40.7791 74.4235 39.9617V25.2161C74.4235 24.3985 73.7609 23.7358 72.9431 23.7358ZM71.4629 38.4814H46.1187V26.6965H71.4629V38.4814Z" fill="white"/>
<path d="M68.0395 33.3911H63.2322C62.4145 33.3911 61.752 34.054 61.752 34.8714C61.752 35.6888 62.4145 36.3516 63.2322 36.3516H68.0395C68.8572 36.3516 69.5197 35.6888 69.5197 34.8714C69.5197 34.054 68.8572 33.3911 68.0395 33.3911Z" fill="white"/>
</svg>
