<svg width="90" height="90" viewBox="0 0 90 90" fill="none" xmlns="http://www.w3.org/2000/svg">
<g clip-path="url(#clip0)">
<path d="M87.7626 32.1355C88.4241 27.4235 85.932 22.8322 81.6206 20.8195C79.378 19.7703 77.9184 17.546 77.8486 15.0713C77.6961 10.0809 75.3746 5.40611 71.4904 2.26987L69.7023 0.82313C69.2804 0.48174 68.7115 0.385392 68.2001 0.568226C67.6896 0.751818 67.311 1.18804 67.2025 1.71985L66.2701 6.28614L66.2208 6.23227L65.9561 5.93489C62.6112 2.16214 57.8112 0.00151729 52.7685 0H52.6471L43.4273 0.0637262C42.7491 0.0690368 42.152 0.514362 41.954 1.16376C41.756 1.81316 42.0026 2.51567 42.5625 2.89954L52.0554 9.39962C52.6661 9.81688 53.2222 10.3077 53.713 10.8608L54.0537 11.2454C55.2265 12.5738 55.9867 14.2155 56.2408 15.9687L50.5745 14.8118C50.0298 14.6995 49.4654 14.8869 49.0967 15.3042C48.728 15.7214 48.6112 16.3041 48.7894 16.8313L51.0532 23.6477C52.1305 26.9221 55.1029 29.2033 58.5449 29.396L62.0134 29.6046C62.8304 29.6539 63.5861 30.0537 64.086 30.7016C64.5859 31.3495 64.7809 32.1825 64.6216 32.9852C63.5193 32.5125 62.2432 32.7166 61.3435 33.5086L57.8568 36.6054C57.0329 37.3405 56.6634 38.4588 56.8872 39.5406L53.0765 42.9211C52.1502 43.7488 50.812 43.9248 49.7028 43.3657C46.2973 41.6436 42.1839 42.1837 39.3382 44.7267L35.1437 48.4555L23.5212 58.7662L15.4318 65.9422C10.2745 70.5184 9.80113 78.4076 14.3735 83.5679L16.3558 85.8051C20.938 90.9578 28.8272 91.4289 33.989 86.8566L57.9008 65.6395C60.7631 63.117 61.7888 59.0985 60.4855 55.5124C60.0614 54.3433 60.3967 53.0339 61.3298 52.2123L65.1375 48.8348C65.3916 48.9205 65.6556 48.9729 65.9234 48.9895H66.1116C66.8702 48.9918 67.6023 48.7157 68.1705 48.2127L71.6558 45.1197C72.5608 44.3277 72.9181 43.0789 72.5692 41.9281L77.8858 41.4888C82.9732 41.0928 87.0904 37.1934 87.7626 32.1355ZM63.4533 26.7081C63.0429 26.5928 62.6211 26.5223 62.1947 26.4972L58.7269 26.2886C56.5527 26.1687 54.6735 24.7281 53.993 22.6592L52.5758 18.3941L57.548 19.4107C57.9895 19.5017 58.4485 19.3963 58.8066 19.1217C59.1647 18.847 59.3854 18.4313 59.412 17.9814C59.5956 14.7625 58.5024 11.6012 56.3698 9.18417L56.0299 8.79877C55.3722 8.05682 54.6257 7.39755 53.8079 6.83616L48.3995 3.137L52.2731 3.10741C56.7097 3.08238 60.9429 4.96837 63.8918 8.28441L64.0905 8.50821L64.5397 9.01271C65.6132 10.2903 66.1677 11.9244 66.0934 13.5919C66.0501 16.6788 67.1722 19.6679 69.2349 21.9651C70.5443 23.4391 72.6139 25.3972 74.2784 26.9691L75.1873 27.8302C76.4876 29.0804 76.6894 31.0893 75.6637 32.5732C75.2343 33.168 74.6441 33.627 73.9628 33.897L68.0803 36.4127L67.2753 35.5054L67.6653 33.6163C68.2904 30.5666 66.4545 27.5525 63.4578 26.7081H63.4533ZM36.0351 51.8034L44.2838 61.1013L34.9866 69.3493L26.7394 60.0521L36.0351 51.8034ZM59.2618 49.8878C57.3705 51.5507 56.6922 54.2022 57.5525 56.5692C58.4212 58.9597 57.7377 61.6392 55.8297 63.3211L31.921 84.5329C30.0691 86.1996 27.621 87.047 25.1341 86.8801C22.6488 86.7382 20.3228 85.6086 18.6758 83.7416L16.6934 81.5059C13.2552 77.6299 13.6103 71.7011 17.4854 68.2622L24.4134 62.1156L33.6939 72.5751C34.2637 73.2169 35.2461 73.2753 35.8879 72.7056L47.5096 62.3941C48.1514 61.8243 48.2098 60.8419 47.6401 60.2001L38.3596 49.7406L41.3987 47.0444C43.2976 45.3541 46.0378 44.9976 48.3062 46.1454C50.5525 47.2811 53.2654 46.9245 55.1423 45.2471L58.6275 42.1549L61.8685 45.8063L62.7523 46.8039L59.2618 49.8878ZM66.1116 45.8965L59.9248 38.9231L63.4116 35.8316L64.4403 36.9908L68.559 41.639L69.5877 42.7998L66.1116 45.8965ZM70.3691 38.9982L70.2523 38.8677L75.1819 36.7594C76.4125 36.2549 77.4731 35.4083 78.237 34.3196C80.1169 31.5794 79.7323 27.8795 77.3282 25.5846L76.4109 24.7167C74.7905 23.1842 72.7755 21.2777 71.5571 19.9C70.0125 18.187 69.1704 15.9543 69.1993 13.648C69.2251 12.4304 69.0392 11.2173 68.6493 10.0634C68.6652 10.024 68.6796 9.98454 68.691 9.94357L69.7349 4.84016C72.799 7.40742 74.6205 11.162 74.7412 15.1577C74.8451 18.803 76.9951 22.0781 80.299 23.6227C83.4785 25.1226 85.2545 28.5721 84.6286 32.0315C84.0027 35.4917 81.1305 38.0999 77.6263 38.3905L70.3691 38.9982Z" fill="white"/>
<path d="M15.8838 75.9139L18.209 73.8503L20.2718 76.1741L17.9465 78.2383L15.8838 75.9139Z" fill="white"/>
<path d="M27.0377 80.5568C26.6061 80.9255 26.0515 81.1182 25.484 81.0954C24.9135 81.0635 24.3794 80.8033 24.0016 80.3732L22.3364 78.4978L20.0059 80.5628L21.6756 82.4367C22.5989 83.4844 23.9038 84.1179 25.2974 84.1968C25.4013 84.2028 25.5083 84.2059 25.6191 84.2059C26.9042 84.2081 28.1438 83.7363 29.1028 82.8813L30.9781 81.2168L28.9177 78.8862L27.0377 80.5568Z" fill="white"/>
<path d="M8.62402 60.5947H14.8389V63.7021H8.62402V60.5947Z" fill="white"/>
<path d="M2.40918 60.5947H5.51659V63.7021H2.40918V60.5947Z" fill="white"/>
<path d="M28.8223 41.95H35.0371V45.0574H28.8223V41.95Z" fill="white"/>
<path d="M22.6074 41.95H25.7148V45.0574H22.6074V41.95Z" fill="white"/>
<path d="M22.6074 51.2722H25.7148V54.3796H22.6074V51.2722Z" fill="white"/>
<path d="M10.1777 51.2722H19.5V54.3796H10.1777V51.2722Z" fill="white"/>
</g>
<defs>
<clipPath id="clip0">
<rect width="90" height="90" fill="white"/>
</clipPath>
</defs>
</svg>
