<svg width="90" height="90" viewBox="0 0 90 90" fill="none" xmlns="http://www.w3.org/2000/svg">
<path d="M0 61.4863V84.7621C0 87.3329 2.08437 89.4173 4.65517 89.4173H88.4483C89.3052 89.4173 90 88.7225 90 87.8656V50.6242C89.9917 48.658 88.7498 46.9093 86.8966 46.2547V42.8656C86.8966 42.2776 86.5647 41.7397 86.0381 41.4767C80.8435 38.9014 77.5658 33.5961 77.5862 27.7984V4.07247C77.5862 3.33449 77.0672 2.6988 76.3451 2.55181L68.5865 1.00009C68.3857 0.959931 68.1789 0.959931 67.9781 1.00009L60.2195 2.55181C59.4921 2.69426 58.9663 3.33071 58.9655 4.07247V5.6242H34.1379V4.07247C34.1379 3.33449 33.6189 2.6988 32.8969 2.55181L25.1382 1.00009C24.9375 0.959931 24.7306 0.959931 24.5298 1.00009L16.7712 2.55181C16.0438 2.69426 15.518 3.33071 15.5172 4.07247V27.7984C15.515 30.6389 14.7255 33.4234 13.2359 35.8427C11.7417 38.2566 9.60508 40.2069 7.06535 41.4767C6.53876 41.7397 6.2069 42.2776 6.2069 42.8656V50.6242H4.65517C2.08437 50.6242 0 52.7086 0 55.2794V61.4863ZM37.2414 86.3139H24.8276V77.646L26.8339 79.6523C27.1249 79.9433 27.5196 80.1069 27.931 80.1069H29.4828V83.2104H32.5862V80.1069H34.1379C34.5494 80.1069 34.9441 79.9433 35.2351 79.6523L37.2414 77.646V86.3139ZM37.2414 73.2575L33.4954 77.0035H32.5862V73.9001H29.4828V77.0035H28.5735L24.8276 73.2575V53.7276H37.2414V73.2575ZM29.4828 50.6242V35.107H51.2069V50.6242H29.4828ZM29.4828 32.0035V28.9001H51.2069V32.0035H29.4828ZM52.7586 86.3139H40.3448V77.646L42.3512 79.6523C42.6421 79.9433 43.0369 80.1069 43.4483 80.1069H45V83.2104H48.1035V80.1069H49.6552C50.0666 80.1069 50.4613 79.9433 50.7523 79.6523L52.7586 77.646V86.3139ZM52.7586 73.2575L49.0127 77.0035H48.1035V73.9001H45V77.0035H44.0908L40.3448 73.2575V53.7276H52.7586V73.2575ZM62.069 81.6587V86.3139H55.8621V53.7276H62.069V81.6587ZM63.6207 50.6242H54.3103V36.4533L56.5523 37.9498C56.8077 38.1187 57.1077 38.2096 57.4138 38.2104H60.5172C60.8233 38.2096 61.1234 38.1187 61.3787 37.9498L63.6207 36.4533V50.6242ZM63.6207 27.3483V32.7248L60.052 35.107H57.879L54.3103 32.7248V24.2449H63.6207V27.3483ZM86.8966 86.3139H65.1724V83.2104H86.8966V86.3139ZM86.8966 50.6242V55.2794H74.4828V58.3828H86.8966V61.4863H74.4828V64.5897H86.8966V67.6932H74.4828V70.7966H86.8966V73.9001H74.4828V77.0035H86.8966V80.1069H65.1724V53.7276C66.0294 53.7276 66.7241 53.0329 66.7241 52.1759V49.0725H85.3448C86.2018 49.0725 86.8966 49.7673 86.8966 50.6242ZM34.1379 8.72764H58.9655V11.1469C58.9655 11.1825 58.9519 11.2136 58.9504 11.2492C58.9155 11.8773 58.5011 12.4206 57.904 12.6191C50.5326 15.0596 42.5709 15.0596 35.1994 12.6191C35.0676 12.5721 34.9426 12.5069 34.8282 12.4251C34.4327 12.1561 34.1842 11.719 34.1531 11.2416C34.1531 11.209 34.1379 11.1795 34.1379 11.1469V8.72764ZM9.31034 43.7968C15.0679 40.5289 18.6237 34.4182 18.6207 27.7984V24.2449H24.8276V21.1414H18.6207V18.038H24.8276V14.9345H18.6207V11.8311H24.8276V8.72764H18.6207V5.3431L24.8276 4.10202L31.0345 5.3431V11.1469C31.0345 11.2613 31.0534 11.3735 31.0625 11.4879C31.1747 13.0926 32.1104 14.5246 33.5356 15.2709C33.7568 15.3876 33.9864 15.4869 34.2235 15.5672C42.2314 18.2312 50.8872 18.2312 58.8958 15.5672C60.5847 14.9641 61.7939 13.4662 62.0288 11.6879C62.0531 11.5091 62.0667 11.3288 62.069 11.1484V5.3431L68.2759 4.10202L74.4828 5.3431V8.72764H69.8276V11.8311H74.4828V14.9345H69.8276V18.038H74.4828V21.1414H69.8276V24.2449H74.4828V27.7984C74.4585 34.4235 78.0204 40.544 83.7931 43.7968V45.969H66.7241V22.6932C66.7241 21.8362 66.0294 21.1414 65.1724 21.1414H52.7586C51.9017 21.1414 51.2069 21.8362 51.2069 22.6932V25.7966H27.931C27.0741 25.7966 26.3793 26.4914 26.3793 27.3483V50.6242H9.31034V43.7968ZM3.10345 55.2794C3.10345 54.4224 3.79824 53.7276 4.65517 53.7276H21.7241V59.9345H3.10345V55.2794ZM3.10345 63.038H21.7241V73.0219L15.0876 77.0035H13.9655V73.9001H10.8621V77.0035H9.73995L3.10345 73.0219V63.038ZM3.10345 76.6406L8.51099 79.8849C8.75269 80.0297 9.02849 80.1069 9.31034 80.1069H10.8621V83.2104H13.9655V80.1069H15.5172C15.7991 80.1069 16.0749 80.0297 16.3166 79.8849L21.7241 76.6406V86.3139H4.65517C3.79824 86.3139 3.10345 85.6191 3.10345 84.7621V76.6406Z" fill="white"/>
<path d="M32.5859 38.2104H38.7928V41.3139H32.5859V38.2104Z" fill="white"/>
<path d="M41.8965 38.2104H48.1034V41.3139H41.8965V38.2104Z" fill="white"/>
<path d="M32.5859 44.4172H38.7928V47.5207H32.5859V44.4172Z" fill="white"/>
<path d="M41.8965 44.4172H48.1034V47.5207H41.8965V44.4172Z" fill="white"/>
</svg>
