<svg width="198" height="71" viewBox="0 0 198 71" fill="none" xmlns="http://www.w3.org/2000/svg">
<path d="M4.88121 65.7597V62.5631H20.1666V58.1266H4.88121V55.4414H20.1666V51.0049H0V70.1962H20.1666V65.7597H4.88121Z" fill="white"/>
<path d="M37.6783 60.3922L46.5143 51.0039H39.8883L34.3413 56.8656L28.8143 51.0039H22.1643L31.0003 60.4164L21.7793 70.1952H28.4333L34.3132 63.9511L40.1931 70.1952H46.8993L37.6783 60.3922Z" fill="white"/>
<path d="M47.834 51.0039V55.4404H56.333V70.1952H61.2102V55.4404H69.7092V51.0039H47.834Z" fill="white"/>
<path d="M99.8909 65.7587V62.5622H115.18V58.1257H99.8909V55.4404H115.18V51.0039H95.0137V70.1952H115.18V65.7587H99.8909Z" fill="white"/>
<path d="M138.11 51.0039L131.661 64.4744L125.191 51.0039H118.429V70.1952H123.306V58.174L129.102 70.1952H134.151L139.995 57.9888V70.1952H144.872V51.0039H138.11Z" fill="white"/>
<path d="M163.462 51.0039V61.2135C163.462 64.4422 161.83 66.0123 158.477 66.0123H157.967C154.61 66.0123 152.982 64.4422 152.982 61.2135V51.0039H148.101V61.4712C148.101 67.1798 151.791 70.4529 158.224 70.4529C164.561 70.4529 168.347 67.0953 168.347 61.4712V51.0039H163.462Z" fill="white"/>
<path d="M191.234 51.0039L184.788 64.4744L178.319 51.0039H171.557V70.1952H176.434V58.174L182.226 70.1952H187.279L193.119 57.9888V70.1952H198V51.0039H191.234Z" fill="white"/>
<path d="M92.3339 57.3448C92.3339 53.5524 89.3338 51 84.8657 51H72.2676V70.1913H77.1488V63.6573H80.5741L86.1411 70.1913H92.0812L86.3016 63.5728C90.0076 63.1179 92.3339 60.7788 92.3339 57.3448ZM77.1488 55.4405H84.4566C86.4099 55.4405 87.4006 56.0806 87.4006 57.3448C87.4006 57.8077 87.4006 59.2248 84.4566 59.2248H77.1488V55.4405Z" fill="white"/>
<path d="M79.624 0V38.8979H118.377V0H79.624ZM116.893 18.5431H99.9029V1.48957C109.08 1.94449 116.44 9.33195 116.893 18.5431ZM98.098 1.48957V18.5431H81.108C81.5653 9.33195 88.9212 1.94449 98.098 1.48957ZM81.108 20.3548H98.098V37.4083C88.9212 36.9494 81.5653 29.5659 81.108 20.3548ZM99.9029 37.4083V20.3548H116.893C116.44 29.5659 109.08 36.9494 99.9029 37.4083Z" fill="white"/>
</svg>
