<svg width="40" height="40" viewBox="0 0 40 40" fill="none" xmlns="http://www.w3.org/2000/svg">
<g clip-path="url(#clip0)">
<path d="M22.7013 39.9219H16.2831C15.2111 39.9219 14.339 39.0515 14.339 37.9816V23.5333H10.5945C9.52246 23.5333 8.65039 22.6627 8.65039 21.593V15.4019C8.65039 14.332 9.52246 13.4616 10.5945 13.4616H14.339V10.3613C14.339 7.28729 15.3062 4.67194 17.1356 2.79846C18.9733 0.916443 21.5415 -0.078125 24.5625 -0.078125L29.4573 -0.0701905C30.5275 -0.0683594 31.3981 0.802002 31.3981 1.87012V7.61841C31.3981 8.68836 30.5263 9.55872 29.4546 9.55872L26.159 9.55994C25.1539 9.55994 24.8979 9.76105 24.8432 9.82269C24.753 9.92493 24.6457 10.2139 24.6457 11.012V13.4613H29.2069C29.5503 13.4613 29.883 13.5458 30.1689 13.7051C30.7856 14.0491 31.169 14.6994 31.169 15.4022L31.1666 21.5933C31.1666 22.6627 30.2945 23.533 29.2225 23.533H24.6457V37.9816C24.6457 39.0515 23.7733 39.9219 22.7013 39.9219ZM16.6886 37.5769H22.2958V22.4835C22.2958 21.7691 22.8783 21.1881 23.5938 21.1881H28.817L28.8192 15.8066H23.5935C22.878 15.8066 22.2958 15.2255 22.2958 14.5111V11.012C22.2958 10.0958 22.3891 9.05396 23.082 8.27087C23.9192 7.32422 25.2386 7.21497 26.1583 7.21497L29.0485 7.21375V2.27417L24.5607 2.26685C19.7056 2.26685 16.6886 5.36865 16.6886 10.3613V14.5111C16.6886 15.2252 16.1064 15.8066 15.3909 15.8066H11V21.1881H15.3909C16.1064 21.1881 16.6886 21.7691 16.6886 22.4835V37.5769ZM29.4527 2.27478H29.453H29.4527Z" fill="white"/>
</g>
<defs>
<clipPath id="clip0">
<rect width="40" height="40" fill="white"/>
</clipPath>
</defs>
</svg>
