<svg width="90" height="90" viewBox="0 0 90 90" fill="none" xmlns="http://www.w3.org/2000/svg">
<g clip-path="url(#clip0)">
<path d="M44.9996 43.895C36.8713 43.895 30.2588 50.5077 30.2588 58.6359C30.2588 66.764 36.8715 73.3767 44.9996 73.3767C53.1279 73.3767 59.7405 66.764 59.7405 58.6359C59.7405 50.5077 53.1279 43.895 44.9996 43.895ZM46.5398 53.0659C48.9812 53.7419 50.7795 55.9821 50.7795 58.6357C50.7795 59.6712 50.5046 60.6429 50.0261 61.484L46.5398 57.9978V53.0659ZM47.8478 63.6623C47.0065 64.141 46.0348 64.4161 44.9996 64.4161C43.9644 64.4161 42.9926 64.1411 42.1513 63.6627L44.9996 60.8143L47.8478 63.6623ZM43.4596 57.9981L39.9733 61.4844C39.4945 60.6431 39.2196 59.6712 39.2196 58.636C39.2196 55.9823 41.018 53.7421 43.4594 53.0662V57.9981H43.4596ZM35.7425 65.7147C34.2367 63.7504 33.3392 61.2967 33.3392 58.6359C33.3392 52.7286 37.7557 47.8369 43.4594 47.0804V49.9124C39.3057 50.6438 36.139 54.276 36.139 58.636C36.139 60.5237 36.7344 62.274 37.7443 63.7129L35.7425 65.7147ZM44.9996 70.2963C42.339 70.2963 39.8851 69.3986 37.9207 67.893L39.9225 65.8912C41.3615 66.9013 43.1117 67.4965 44.9994 67.4965C46.8872 67.4965 48.6374 66.9011 50.0764 65.8912L52.0782 67.893C50.1142 69.3988 47.6602 70.2963 44.9996 70.2963ZM54.2568 65.7147L52.255 63.7129C53.265 62.274 53.8604 60.5237 53.8604 58.636C53.8604 54.276 50.6939 50.644 46.5403 49.9124V47.0804C52.2441 47.8369 56.6606 52.7286 56.6606 58.6359C56.6601 61.2967 55.7624 63.7504 54.2568 65.7147Z" fill="white"/>
<path d="M89.9035 59.3538C89.7611 58.9708 89.4726 58.6602 89.1014 58.4899L79.5327 54.1043C78.7598 53.7499 77.8452 54.0892 77.4909 54.8626L75.437 59.3436L72.6537 58.0673C73.2127 55.8426 73.5113 53.5158 73.5113 51.1201V50.824C75.9494 49.358 77.5888 46.8992 77.9818 44.0213C78.525 40.0446 78.7103 36.0004 78.5329 32.001C78.3909 28.7978 77.0282 25.822 74.6961 23.621C74.2289 23.1802 73.7319 22.7822 73.212 22.4246C72.0891 19.1305 70.4186 16.0981 68.2326 13.3865L70.0971 11.522C70.6987 10.9205 70.6987 9.94523 70.0971 9.34389L64.7479 3.99434C64.4591 3.70535 64.0673 3.54311 63.659 3.54311C63.2506 3.54311 62.8587 3.70535 62.57 3.99434L60.1646 6.39973C55.5824 3.68654 50.3669 2.25586 44.9982 2.25586C39.6309 2.25586 34.4162 3.68637 29.8359 6.39973L27.4305 3.99434C27.1417 3.70535 26.7498 3.54311 26.3415 3.54311C25.933 3.54311 25.5412 3.70535 25.2525 3.99434L19.903 9.34406C19.3015 9.94559 19.3015 10.9208 19.903 11.5222L21.7675 13.3869C19.5818 16.0981 17.9116 19.1302 16.7887 22.4238C16.2678 22.7817 15.7702 23.18 15.3028 23.6212C12.9709 25.8218 11.6084 28.7979 11.466 32.0012C11.2883 35.9999 11.4737 40.0441 12.0171 44.0213C12.4101 46.9001 14.0502 49.3593 16.4891 50.8251V51.1202C16.4891 53.5158 16.7878 55.8428 17.3468 58.0675L14.5635 59.3438L12.5096 54.8628C12.1552 54.0895 11.2412 53.7499 10.4677 54.1045L0.898394 58.4899C0.527144 58.6602 0.238511 58.9708 0.0963044 59.3538C-0.0457269 59.7369 -0.0302581 60.1605 0.140074 60.5317L12.2006 86.8451C12.4597 87.4104 13.018 87.7441 13.6018 87.7441C13.8164 87.7441 14.0345 87.6989 14.2425 87.6036L23.8111 83.2181C24.1824 83.0477 24.471 82.7371 24.6132 82.3541C24.7552 81.9711 24.7398 81.5474 24.5694 81.1762L22.5154 76.6948L28.1578 74.1103C32.8804 77.5794 38.7047 79.6316 45.0002 79.6316C51.2958 79.6316 57.1201 77.5792 61.8423 74.1103L67.4847 76.6948L65.4309 81.176C65.2605 81.5473 65.2451 81.9712 65.3871 82.3539C65.5295 82.7369 65.8179 83.0475 66.1892 83.2179L75.7578 87.6034C75.9658 87.6987 76.1839 87.7439 76.3986 87.7439C76.9821 87.7439 77.5406 87.4104 77.7997 86.8449L89.8602 60.5316C90.0302 60.1605 90.0459 59.7367 89.9035 59.3538ZM75.4557 32.1378C75.6249 35.9528 75.4481 39.8108 74.9299 43.6045C74.6226 45.8538 73.1863 47.7261 71.0875 48.6129C68.963 49.5106 66.5872 49.2295 64.7325 47.8612C63.8856 47.2365 63.0626 46.6202 62.2585 46.0108L68.8468 35.4903C69.1442 35.0155 69.1602 34.4168 68.889 33.9269C68.6178 33.437 68.1017 33.1327 67.5415 33.1327H63.2471L69.6039 23.9671C72.9119 25.2386 75.2883 28.3648 75.4557 32.1378ZM58.94 35.3871C59.2057 35.8949 59.7315 36.2131 60.3046 36.2131H64.7596L59.8057 44.1243C56.4806 41.5257 53.582 39.0866 51.1521 36.8405C49.0888 34.9331 48.3298 32.1868 49.1224 29.494C49.9106 26.8157 52.023 24.9286 54.7727 24.4458C58.6093 23.7724 62.4373 23.4057 66.1503 23.3558C66.1932 23.3551 66.2356 23.357 66.2785 23.357L59.0393 33.7951C58.7125 34.2662 58.6742 34.8795 58.94 35.3871ZM63.6586 7.26176L66.8301 10.4332L63.1228 14.1404L59.9516 10.969L63.6586 7.26176ZM26.341 7.26176L30.048 10.969L26.8766 14.1404L23.1695 10.4332L26.341 7.26176ZM15.0686 43.6045C14.5503 39.8101 14.3734 35.9521 14.5429 32.1378C14.7626 27.1885 18.7815 23.3549 23.7197 23.3549C23.7624 23.3549 23.8059 23.3551 23.8484 23.3558C25.5769 23.379 27.331 23.4739 29.0985 23.6335L22.0507 33.7952C21.7239 34.2662 21.6859 34.8796 21.9517 35.3873C22.2175 35.8951 22.7433 36.2133 23.3163 36.2133H27.771L19.8153 48.9186C19.5103 48.8389 19.2079 48.7389 18.9109 48.6132C16.8122 47.7261 15.3757 45.8538 15.0686 43.6045ZM31.9001 33.9269C31.6288 33.4368 31.1127 33.1327 30.5525 33.1327H26.2585L32.5714 24.0304C33.4548 24.1529 34.3399 24.2904 35.2257 24.4458C37.9758 24.9283 40.0878 26.8157 40.876 29.494C41.6682 32.1868 40.9094 34.9332 38.8462 36.8405C35.2828 40.1344 30.7135 43.8424 25.2655 47.8614C24.7287 48.2576 24.1474 48.5594 23.5417 48.7713L31.8579 35.4905C32.1555 35.0155 32.1716 34.4168 31.9001 33.9269ZM14.3588 84.1617L3.58205 60.6483L10.3503 57.5463L21.1273 81.0596L14.3588 84.1617ZM21.2324 73.8944L15.8468 62.1438L18.2672 61.0338C19.8223 65.2137 22.3316 68.9328 25.5283 71.9266L21.2324 73.8944ZM45 76.5514C31.2813 76.5514 20.0672 65.6322 19.5868 52.0288C20.205 52.1529 20.8283 52.2148 21.4497 52.2148C23.445 52.2148 25.4148 51.5794 27.0945 50.3403C32.6336 46.2543 37.2909 42.4732 40.9377 39.1024C43.8361 36.4233 44.9451 32.4081 43.8316 28.6245C42.7224 24.855 39.629 22.0912 35.7586 21.4118C31.7605 20.7101 27.7674 20.3279 23.8901 20.2755C22.8496 20.2625 21.8257 20.3808 20.8369 20.6192C21.6829 18.8317 22.7273 17.148 23.9598 15.5799L25.7878 17.4079C26.0766 17.6968 26.4684 17.8591 26.8768 17.8591C27.2853 17.8591 27.6771 17.6968 27.9657 17.4079L33.3153 12.0583C33.9168 11.4568 33.9168 10.4815 33.3153 9.88019L32.0908 8.6557C36.027 6.47936 40.4515 5.33695 45 5.33695C49.5459 5.33695 53.9706 6.47936 57.9088 8.65588L56.6843 9.88037C56.0828 10.4819 56.0828 11.4571 56.6843 12.0585L62.0339 17.408C62.3227 17.697 62.7145 17.8593 63.1228 17.8593C63.5312 17.8593 63.9232 17.697 64.2118 17.408L66.0399 15.5799C67.2727 17.1482 68.3174 18.8326 69.1636 20.6203C68.1748 20.3821 67.1505 20.2636 66.1087 20.2759C62.2315 20.3281 58.2382 20.7104 54.2401 21.4121C50.3696 22.0915 47.2762 24.8552 46.1672 28.6248C45.0538 32.4087 46.1626 36.4237 49.0611 39.1028C52.7075 42.4736 57.3651 46.2544 62.9042 50.3406C64.5843 51.5801 66.5534 52.2152 68.549 52.2152C69.1704 52.2152 69.7946 52.1529 70.4134 52.0288C69.933 65.632 58.7186 76.5514 45 76.5514ZM64.4716 71.9266C67.6686 68.9328 70.1777 65.2137 71.7328 61.0338L74.1531 62.1438L68.7675 73.8944L64.4716 71.9266ZM75.6409 84.1617L68.8727 81.0596L79.6496 57.5463L86.4179 60.6483L75.6409 84.1617Z" fill="white"/>
</g>
<defs>
<clipPath id="clip0">
<rect width="90" height="90" fill="white"/>
</clipPath>
</defs>
</svg>
