<svg width="88" height="88" viewBox="0 0 88 88" fill="none" xmlns="http://www.w3.org/2000/svg">
<path d="M39.8687 50.6961C39.3423 49.896 38.494 49.3813 37.5411 49.2839C36.5888 49.1869 35.6534 49.5191 34.9761 50.1966L29.4357 55.737C28.3633 56.8092 28.2013 58.4991 29.0499 59.7554L44.0586 81.9804C44.5904 82.7681 45.4381 83.2718 46.3841 83.3627C46.4867 83.3725 46.5889 83.3774 46.6905 83.3774C47.5282 83.3774 48.3311 83.0473 48.9306 82.4481L54.2382 77.1403C55.2968 76.0815 55.4681 74.4051 54.6449 73.1537L39.8687 50.6961ZM52.5297 75.4323L47.2222 80.74C47.0025 80.9595 46.747 80.9708 46.6147 80.9582C46.4822 80.9455 46.2338 80.8857 46.0602 80.6285L31.0518 58.4032C30.8494 58.1036 30.888 57.7008 31.1435 57.4451L36.6839 51.9047C36.8672 51.7215 37.0751 51.683 37.2171 51.683C37.2462 51.683 37.2728 51.6847 37.2957 51.6869C37.4293 51.7005 37.6788 51.7624 37.8505 52.0236C37.8507 52.0236 37.8507 52.0236 37.8507 52.0236L52.6267 74.4812C52.8231 74.7799 52.7823 75.1797 52.5297 75.4323Z" fill="white"/>
<path d="M75.0279 9.71392L73.0531 7.73902C73.3506 7.27187 73.2964 6.6451 72.8885 6.23723L67.0051 0.353801C66.7784 0.127287 66.4712 0 66.1509 0C65.8305 0 65.5233 0.127287 65.2968 0.353801L63.5817 2.06892C63.5306 1.98195 63.4693 1.89926 63.3946 1.82457C62.9228 1.35277 62.158 1.35277 61.6865 1.82457L59.4134 4.0977C58.9416 4.56931 58.9416 5.33414 59.4134 5.80575C59.4881 5.88045 59.5706 5.94196 59.6576 5.99288L17.2102 48.4401L16.4597 47.6895C15.9882 47.2179 15.2234 47.2179 14.7516 47.6895C14.28 48.1612 14.28 48.926 14.7518 49.3976L15.5023 50.1479L15.1818 50.4685C12.8189 52.8316 12.2934 56.5268 13.9039 59.4547L14.1531 59.9079C13.9767 60.0297 13.8093 60.1666 13.6542 60.3218C12.9869 60.9889 12.6195 61.8756 12.6191 62.8188C12.6188 63.762 12.9859 64.6488 13.6529 65.3155C14.3413 66.0039 15.2457 66.3483 16.1501 66.3483C17.0028 66.3483 17.8529 66.0383 18.5247 65.4266C19.5653 65.7916 20.7369 65.7823 21.8276 65.3237C25.0185 63.9826 28.758 65.0799 30.718 67.9335L43.5007 86.5437C44.0673 87.3686 44.9639 87.8941 45.9602 87.9857C46.0641 87.9952 46.1674 88 46.2706 88C47.1571 88 48.0076 87.6505 48.6414 87.0166L58.014 77.6437C59.1323 76.5258 59.3151 74.7542 58.449 73.4314L49.4568 59.6961C48.4824 58.2077 48.6883 56.2146 49.9463 54.9566L57.2282 47.6745C59.4125 45.4904 59.662 41.9797 57.8087 39.5083L56.5694 37.8561C55.0128 35.7805 55.2222 32.8321 57.0567 30.9975L63.3942 24.66C63.6209 24.4335 63.748 24.1263 63.748 23.8059C63.748 23.5103 63.6384 23.2265 63.4435 23.0064L75.0277 11.4222C75.4995 10.9504 75.4995 10.1857 75.0279 9.71392ZM66.1509 2.91588L70.3262 7.09126L29.2448 48.1727L25.0693 43.9973L34.3274 34.7392L36.014 36.4259C36.2498 36.6617 36.5591 36.7797 36.8681 36.7797C37.1771 36.7797 37.4863 36.6617 37.7221 36.4259L47.2147 26.9333C47.4414 26.7068 47.5685 26.3996 47.5685 26.0793C47.5685 25.7589 47.4412 25.4517 47.2147 25.2252L45.5282 23.5387L66.1509 2.91588ZM17.1227 60.295L16.0204 58.2909C15.1238 56.6607 15.2015 54.6816 16.1399 53.135L20.2114 57.2063L17.1227 60.295ZM21.9192 55.4983L17.7437 51.3229L18.4775 50.5891L22.6529 54.7646L21.9192 55.4983ZM24.3611 53.0564L20.1857 48.8808L20.9193 48.1472L25.0949 52.3226L24.3611 53.0564ZM26.803 50.6145L22.6274 46.4392L23.3612 45.7054L27.5368 49.8807L26.803 50.6145ZM44.6526 26.0793L36.8681 33.8636L36.0356 33.0311L43.8202 25.2466L44.6526 26.0793ZM15.3607 63.6072C15.1504 63.3969 15.0344 63.1172 15.0346 62.8194C15.0346 62.5343 15.142 62.2662 15.3358 62.0586L16.0193 63.3012C16.1363 63.5141 16.2711 63.7109 16.4153 63.8977C16.0486 63.9872 15.6463 63.893 15.3607 63.6072ZM46.771 50.0588C45.5847 49.1739 44.8431 47.82 44.7362 46.344C44.6476 45.121 45.0036 43.9187 45.7233 42.9469C45.8123 44.7471 46.5411 46.517 47.9 47.8761C48.1602 48.1363 48.4391 48.3776 48.7263 48.5917C49.6192 49.2608 50.6477 49.6509 51.7 49.7795C50.3558 51.0467 48.259 51.1748 46.771 50.0588ZM55.8761 40.9579C57.0204 42.4834 56.8686 44.6181 55.5203 45.9666L55.1838 46.3031C53.8446 47.6423 51.6917 47.7951 50.1724 46.6566C49.9758 46.5101 49.7861 46.3457 49.6082 46.1681C47.785 44.3446 47.6321 41.4304 49.2152 39.4261C49.2894 39.3323 49.3752 39.2468 49.4706 39.1744C51.0313 37.9847 53.2228 38.0566 54.7129 39.4072L55.8761 40.9579ZM55.3486 29.2895C53.5409 31.0971 52.8155 33.6451 53.2319 36.0427C51.1651 35.6269 48.9465 36.2267 47.336 37.8372L44.5062 40.6669C42.9635 42.2095 42.1691 44.3424 42.3267 46.5185C42.4843 48.6945 43.5775 50.6907 45.3238 51.9933C46.2183 52.6641 47.2495 53.0547 48.3042 53.1826L48.2378 53.2489C46.1754 55.3113 45.8382 58.5795 47.4356 61.0197L56.4278 74.755C56.6709 75.1258 56.6194 75.6225 56.3061 75.9358L46.9334 85.3088C46.6617 85.5803 46.3453 85.5955 46.1815 85.5804C46.0173 85.5654 45.7094 85.4927 45.4918 85.1761L32.7091 66.5659C30.8501 63.8594 27.7876 62.3413 24.6441 62.3413C23.3822 62.3413 22.1069 62.586 20.8918 63.0968C19.9865 63.4772 18.964 63.2061 18.3625 62.4719L58.9303 21.9039L60.8325 23.8061L55.3486 29.2895ZM61.738 21.2955L60.6381 20.1956L71.3657 9.46808L72.4656 10.5679L61.738 21.2955Z" fill="white"/>
<path d="M41.8763 70.0666C42.8558 70.0666 43.7763 69.6853 44.4685 68.9927C45.1612 68.3002 45.5424 67.3796 45.5424 66.4004C45.5424 65.4211 45.161 64.5003 44.4687 63.808C44.4687 63.808 44.4687 63.808 44.4685 63.808C43.7761 63.1156 42.8554 62.7341 41.8763 62.7341C40.8968 62.7341 39.9763 63.1154 39.2837 63.808C37.8546 65.2373 37.8546 67.5632 39.2839 68.9927C39.9765 69.6853 40.897 70.0666 41.8763 70.0666ZM40.9918 65.5162C41.228 65.2801 41.5422 65.15 41.8763 65.15C42.2104 65.15 42.5243 65.2801 42.7604 65.5162H42.7606C42.9968 65.7524 43.1269 66.0664 43.1269 66.4005C43.1269 66.7345 42.9968 67.0485 42.7604 67.2849C42.5243 67.521 42.2104 67.6511 41.8763 67.6511C41.5422 67.6511 41.2282 67.521 40.992 67.2849C40.5044 66.7971 40.5044 66.0036 40.9918 65.5162Z" fill="white"/>
</svg>
