<svg width="106" height="106" viewBox="0 0 106 106" fill="none" xmlns="http://www.w3.org/2000/svg">
<g clip-path="url(#clip0)">
<path d="M104.233 40.6333H86.5667V35.3333C86.5667 34.3577 85.7756 33.5667 84.8 33.5667H79.5C78.8271 33.5632 78.2104 33.9419 77.9102 34.544L74.8746 40.6333H58.7166L55.556 39.0521C55.311 38.9296 55.041 38.8667 54.7667 38.8667H53.9377L52.9474 34.9038C52.7498 34.1179 52.0433 33.5667 51.2333 33.5667H35.3333C34.5233 33.5667 33.8168 34.1179 33.6193 34.9038L32.629 38.8667H31.8C31.5257 38.8667 31.2557 38.9296 31.0107 39.0521L27.85 40.6333H1.76667C0.791032 40.6333 0 41.4244 0 42.4V60.0667C0 61.0423 0.791032 61.8333 1.76667 61.8333H10.6C10.9821 61.8333 11.3539 61.7091 11.6602 61.4797L18.3818 56.4376L27.9889 54.8374L29.6391 55.6621L25.5994 67.782C25.2397 68.8595 25.42 70.0438 26.0842 70.9651C26.7476 71.8873 27.8146 72.4333 28.9507 72.4333H35.3333C36.0942 72.4333 36.7696 71.9468 37.0103 71.2248L41.9074 56.5333H43.6241V57.5685C43.6249 58.683 43.8656 59.7846 44.3306 60.7982C44.7481 61.6634 45.7798 62.036 46.6536 61.6384C47.5275 61.2407 47.9243 60.2176 47.5465 59.3352C47.2928 58.7805 47.1626 58.1784 47.1626 57.5685V56.5333H49.5236C49.7695 60.8508 50.8926 65.0734 52.8232 68.9423L53.1941 69.6893C53.4926 70.2862 54.0999 70.6641 54.7667 70.6667H61.8333C62.4475 70.6701 63.0186 70.3544 63.3429 69.8334C63.6673 69.3115 63.6975 68.6593 63.4232 68.1107L63.0505 67.3628C61.0958 63.4516 60.0736 59.1393 60.0667 54.7667H74.2C75.1756 54.7667 75.9667 53.9756 75.9667 53V51.2333H104.233C105.209 51.2333 106 50.4423 106 49.4667V42.4C106 41.4244 105.209 40.6333 104.233 40.6333ZM26.5 47.7V51.5033L17.3751 53.025C17.0965 53.0716 16.8325 53.1837 16.6065 53.3537L10.0117 58.3H3.53333V44.1667H26.5V47.7ZM36.7127 37.1H49.854L50.2957 38.8667H36.271L36.7127 37.1ZM34.0627 68.9H28.9525L33.0741 56.5333H38.1826L34.0627 68.9ZM45.9333 53H32.2167L30.0333 51.9079V49.4667H45.9333V53ZM30.0333 45.9333V43.4921L32.2167 42.4H54.35L56.5333 43.4921V45.9333H30.0333ZM51.2333 53H49.4667V49.4667H56.5333V53H51.2333ZM55.8605 67.1333C54.2439 63.8165 53.2916 60.2159 53.0569 56.5333H56.5903C56.7982 60.1814 57.6315 63.7665 59.0522 67.1333H55.8605ZM61.8333 51.2333H60.0667V44.1667H61.8333V51.2333ZM67.1333 51.2333H65.3667V44.1667H67.1333V51.2333ZM72.4333 49.4667V51.2333H70.6667V44.1667H72.4333V49.4667ZM80.5921 37.1H83.0333V40.6333H78.8254L80.5921 37.1ZM88.3333 47.7H75.9667V44.1667H88.3333V47.7ZM95.4 47.7H91.8667V44.1667H95.4V47.7ZM102.467 47.7H98.9333V44.1667H102.467V47.7Z" fill="white"/>
</g>
<defs>
<clipPath id="clip0">
<rect width="106" height="106" fill="white"/>
</clipPath>
</defs>
</svg>
