<svg width="102" height="102" viewBox="0 0 102 102" fill="none" xmlns="http://www.w3.org/2000/svg">
<g clip-path="url(#clip0)">
<path d="M44.1994 5.10015L44.1994 23.8002C44.1994 23.9397 44.2169 24.0783 44.2501 24.2136L45.4213 28.9002L40.7994 28.9002C38.9218 28.9002 37.3994 30.4226 37.3994 32.3002L37.3994 35.7002C37.3994 37.5779 38.9218 39.1002 40.7994 39.1002L44.1994 39.1002L44.1994 100.3C44.1994 100.968 44.5896 101.573 45.1972 101.848C45.8048 102.124 46.5178 102.019 47.0192 101.579L54.8145 94.7604C58.8719 91.2093 61.1995 86.0786 61.1995 80.6856L61.1995 49.3003C61.2028 48.6528 60.8384 48.0601 60.259 47.7704L57.7995 46.5502L57.7995 39.1002L61.1995 39.1002C63.0771 39.1002 64.5995 37.5779 64.5995 35.7002L64.5995 32.3002C64.5995 30.4226 63.0771 28.9002 61.1995 28.9002L56.5767 28.9002L57.748 24.2136C57.782 24.0783 57.7995 23.9397 57.7995 23.8002L57.7995 5.10015C57.7995 2.28369 55.5159 0.000144167 52.6994 0.00014429L49.2994 0.000144438C46.483 0.000144561 44.1994 2.28369 44.1994 5.10015ZM57.7995 80.6856C57.7936 84.1752 56.5934 87.5578 54.3995 90.2705L54.3995 67.0042L57.7995 63.6042L57.7995 80.6856ZM54.3994 39.1002L54.3994 47.6002C54.3961 48.2477 54.7605 48.8412 55.3391 49.1301L57.7995 50.3511L57.7995 58.7964L51.4975 65.0983C51.1787 65.4171 50.9994 65.8496 50.9994 66.3003L50.9994 93.5004L51.0891 93.5004L47.5994 96.5609L47.5994 61.2003L50.9994 61.2003L50.9994 57.8003L47.5994 57.8003L47.5994 56.1003L50.9994 56.1003L50.9994 52.7003L47.5994 52.7003L47.5994 51.0003L50.9994 51.0003L50.9994 47.6002L47.5994 47.6002L47.5994 45.9002L50.9994 45.9002L50.9994 42.5002L47.5994 42.5002L47.5994 39.1002L54.3994 39.1002ZM61.1995 35.7002L40.7994 35.7002L40.7994 32.3002L61.1995 32.3002L61.1995 35.7002ZM53.9213 25.5002L53.0713 28.9002L48.9267 28.9002L48.0767 25.5002L53.9213 25.5002ZM54.3994 22.1002L51.5091 22.1002L54.3994 20.1761L54.3994 22.1002ZM54.3994 16.0912L47.5994 20.6251L47.5994 16.205L54.3994 11.6711L54.3994 16.0912ZM50.4889 10.2002L47.5994 12.1251L47.5994 10.2002L50.4889 10.2002ZM52.6994 3.40015C53.6383 3.40015 54.3994 4.16133 54.3994 5.10015L54.3994 6.80015L47.5994 6.80016L47.5994 5.10015C47.5994 4.16133 48.3606 3.40015 49.2994 3.40015L52.6994 3.40015Z" fill="white"/>
</g>
<defs>
<clipPath id="clip0">
<rect width="102" height="102" fill="white" transform="translate(0 102) rotate(-90)"/>
</clipPath>
</defs>
</svg>
