<svg width="409" height="76" viewBox="0 0 409 76" fill="none" xmlns="http://www.w3.org/2000/svg">
<path d="M409 0H0V76H409V0Z" fill="white"/>
<path d="M37.3598 49.4115H29.5351L26.948 62.871H18.2221L20.6971 49.4115H13.9443L15.5765 41.0054H22.2757L24.0199 31.574H17.3207L18.8944 23.1679H25.5936L27.674 12.031H36.6241L34.5437 23.1679H42.3098L44.3902 12.031H53.3988L51.2599 23.1679H57.9591L56.3269 31.574H49.6862L47.8835 41.0054H54.5242L52.8921 49.4115H46.2562L43.7227 62.871H34.8263L37.3598 49.4115ZM40.6825 31.5789H32.9164L31.1137 41.0102H38.9383L40.6825 31.5789Z" fill="#050505"/>
<path d="M120.055 37.0453V12.031H133.453V36.8363C133.453 42.5748 134.915 50.1598 144.99 50.1598H145.273C155.348 50.1598 156.644 42.5748 156.644 36.8363V12.031H170.038V37.0404C170.038 47.152 167.392 63.6241 145.945 63.6241H144.313C122.023 63.6241 120.055 47.0889 120.055 37.0453Z" fill="#050505"/>
<path d="M190.009 46.2677V62.871H176.557V12.031H208.362C220.07 12.031 225.979 19.2078 225.979 28.5663V29.2514C225.979 37.7936 221.478 42.9878 213.37 44.4213L228.172 62.871H212.074L198.788 46.2677H190.009ZM190.009 34.0375H206.613C209.989 34.0375 211.904 32.3952 211.904 29.1153V28.9793C211.904 25.7675 210.16 24.198 206.613 24.198H190.009V34.0375Z" fill="#050505"/>
<path d="M241.433 62.871L227.08 12.031H241.492L250.159 47.016L258.656 12.031H273.516L281.96 47.084L290.627 12.031H303.855L289.896 62.871H274.023L265.526 29.2514L257.083 62.871H241.433Z" fill="#050505"/>
<path d="M336.674 54.0567H314.554L311.344 62.871H297.892L316.917 12.031H334.647L354.291 62.871H339.938L336.674 54.0567ZM325.531 23.853L318.661 42.8518H332.567L325.531 23.853Z" fill="#050505"/>
<path d="M364.884 44.4893L343.549 12.031H360.041L372.09 31.0978L384.192 12.031H398.94L378.282 44.5573V62.871H364.884V44.4893Z" fill="#050505"/>
<path d="M89.1507 10.855C73.9789 10.855 61.6768 22.6624 61.6768 37.22C61.6768 51.7777 73.9789 63.5851 89.1507 63.5851C104.322 63.5851 116.625 51.7777 116.625 37.22C116.625 22.6624 104.327 10.855 89.1507 10.855ZM89.1507 50.9371C81.2627 50.9371 74.8656 44.8001 74.8656 37.2249C74.8656 29.6497 81.2627 23.5127 89.1507 23.5127C97.0386 23.5127 103.436 29.6497 103.436 37.2249C103.436 44.8001 97.0435 50.9371 89.1507 50.9371Z" fill="#050505"/>
</svg>
