<svg width="50" height="50" viewBox="0 0 50 50" fill="none" xmlns="http://www.w3.org/2000/svg">
<path d="M50 22.8779C50 19.4101 47.1888 16.599 43.721 16.599C41.9842 16.599 40.4153 17.307 39.2789 18.4468C35.7676 16.1822 31.2816 14.739 26.3548 14.5138C26.3578 12.422 27.2948 10.4719 28.9268 9.16265C30.5617 7.85118 32.6733 7.36004 34.7185 7.8143L34.9994 7.87667C34.9966 7.94706 34.9888 8.01606 34.9888 8.08716C34.9888 10.9819 37.3355 13.3286 40.2302 13.3286C43.125 13.3286 45.4717 10.9819 45.4717 8.08716C45.4717 5.19229 43.125 2.8457 40.2302 2.8457C38.3689 2.8457 36.7383 3.81869 35.8084 5.28096L35.3061 5.16937C32.4542 4.53568 29.5107 5.2208 27.2315 7.04925C24.955 8.87548 23.6486 11.5958 23.6455 14.5138C18.7199 14.7389 14.2347 16.1814 10.7238 18.445C9.5873 17.3049 8.01601 16.5988 6.2789 16.5988C2.8112 16.599 0 19.4101 0 22.8779C0 25.294 1.3672 27.3873 3.36809 28.437C3.21613 29.2142 3.13619 30.009 3.13619 30.8179C3.13619 39.84 12.9249 47.1539 24.9999 47.1539C37.075 47.1539 46.8637 39.84 46.8637 30.8179C46.8637 30.0094 46.7838 29.2151 46.632 28.4381C48.633 27.3882 50 25.2943 50 22.8779ZM40.2302 5.55509C41.6265 5.55509 42.7624 6.69098 42.7624 8.08727C42.7624 9.48345 41.6265 10.6193 40.2302 10.6193C38.834 10.6193 37.6981 9.48345 37.6981 8.08727C37.6981 6.69098 38.8341 5.55509 40.2302 5.55509ZM2.70928 22.8779C2.70928 20.9096 4.31059 19.3082 6.2789 19.3082C7.12191 19.3082 7.89569 19.6036 8.50622 20.0946C6.59656 21.7329 5.11811 23.6587 4.20017 25.7733C3.29863 25.1258 2.70928 24.0705 2.70928 22.8779ZM38.8384 40.1988C35.174 42.9367 30.2594 44.4445 25.0001 44.4445C19.7407 44.4445 14.8261 42.9367 11.1617 40.1988C7.73361 37.6374 5.84558 34.3058 5.84558 30.8179C5.84558 27.3298 7.73361 23.9983 11.1617 21.4369C14.8261 18.699 19.7407 17.1911 25.0001 17.1911C30.2594 17.1911 35.174 18.699 38.8384 21.4369C42.2665 23.9983 44.1545 27.3298 44.1545 30.8179C44.1544 34.3058 42.2665 37.6374 38.8384 40.1988ZM45.799 25.7717C44.8808 23.6575 43.4025 21.7322 41.4932 20.0941C42.1037 19.6031 42.878 19.3082 43.7211 19.3082C45.6894 19.3082 47.2907 20.9096 47.2907 22.8779C47.2906 24.0704 46.7006 25.1244 45.799 25.7717Z" fill="white"/>
<path d="M17.0142 29.8621C18.5931 29.8621 19.8731 28.5821 19.8731 27.0032C19.8731 25.4243 18.5931 24.1443 17.0142 24.1443C15.4353 24.1443 14.1553 25.4243 14.1553 27.0032C14.1553 28.5821 15.4353 29.8621 17.0142 29.8621Z" fill="white"/>
<path d="M32.9859 29.8621C34.5648 29.8621 35.8448 28.5821 35.8448 27.0032C35.8448 25.4243 34.5648 24.1443 32.9859 24.1443C31.4069 24.1443 30.127 25.4243 30.127 27.0032C30.127 28.5821 31.4069 29.8621 32.9859 29.8621Z" fill="white"/>
<path d="M31.7754 33.9501C29.7601 35.7863 27.1475 36.7974 24.4188 36.7974C21.3548 36.7974 18.5161 35.5626 16.4255 33.3205C15.9153 32.7732 15.0581 32.7434 14.5109 33.2536C13.9637 33.7637 13.9338 34.6211 14.444 35.1682C17.0149 37.9253 20.6506 39.5066 24.4189 39.5066C27.8242 39.5066 31.0848 38.2444 33.6001 35.9527C34.153 35.4488 34.1931 34.592 33.6891 34.039C33.1854 33.4864 32.3291 33.446 31.7754 33.9501Z" fill="white"/>
</svg>
