<svg width="92" height="92" viewBox="0 0 92 92" fill="none" xmlns="http://www.w3.org/2000/svg">
<g clip-path="url(#clip0)">
<path d="M88.0504 2.95317C88.6873 2.31636 88.6873 1.28387 88.0504 0.647057C87.4136 0.0102423 86.381 0.0102423 85.7443 0.647057L85.1458 1.2456L84.3778 0.477611C83.7412 -0.159204 82.7085 -0.159204 82.0717 0.477611C81.4349 1.11443 81.4349 2.14691 82.0717 2.78391L82.8397 3.5519L72.0221 14.3697L68.0785 12.5771C67.4598 12.2959 66.731 12.428 66.2505 12.9086L56.3286 22.8305L56.2668 22.7686C55.63 22.1318 54.5973 22.1318 53.9607 22.7686L24.1535 52.5755C23.8475 52.8811 23.6757 53.296 23.6757 53.7286V57.0686L18.9738 66.0911L15.3905 67.2855C15.0823 67.3881 14.812 67.5804 14.614 67.8379L3.81045 81.8683C3.52888 82.2339 3.41532 82.7017 3.49816 83.1557C3.58099 83.6098 3.85214 84.0074 4.24458 84.25L16.3809 91.7563C16.6414 91.9175 16.9388 92.0002 17.2389 92.0002C17.4001 92.0002 17.5618 91.9763 17.719 91.9277C18.169 91.7892 18.5368 91.4629 18.7283 91.0331L30.5452 64.5107L32.6152 65.4719C33.5366 65.8997 34.2617 66.651 34.6563 67.5874L38.1223 75.8102C38.2906 76.2095 38.6108 76.5254 39.0123 76.688C39.2089 76.7676 39.4169 76.8077 39.625 76.8077C39.8421 76.8077 40.0588 76.7644 40.2625 76.678L46.4499 74.0506C47.2095 73.728 47.6084 72.8889 47.3787 72.0961L43.9174 60.1384L50.0112 54.0446C52.953 55.9013 56.1669 57.3132 59.5452 58.2102C62.463 58.9851 65.469 59.3727 68.4757 59.3727C71.3236 59.3727 74.1724 59.0249 76.9459 58.3284C77.7739 58.1205 78.3015 57.3096 78.1557 56.4684L76.432 46.5162C76.3529 46.0596 76.0832 45.6584 75.6908 45.4126C75.2978 45.1666 74.8191 45.0996 74.3742 45.2275C67.2127 47.2887 59.5169 45.4503 54.0723 40.435L54.5749 38.0675L61.9175 30.7247C62.2235 30.419 62.3953 30.0042 62.3953 29.5716C62.3953 29.3005 62.3277 29.0365 62.2019 28.8017L73.5293 17.4743L88.0504 2.95317ZM16.5094 88.0005L7.49712 82.4266L16.8945 70.2223L20.6311 68.9769C21.0325 68.8432 21.366 68.5586 21.5615 68.1834L25.7254 60.1934L27.9207 62.3886L16.5094 88.0005ZM30.5563 60.4119L26.937 56.793V54.4042H26.9372L47.4292 33.9122L51.3006 37.7836L50.7933 40.1745L30.5563 60.4119ZM43.3147 56.1287L42.0831 57.3604L40.1515 55.4288L41.3833 54.197L43.3147 56.1287ZM40.4929 73.0369L37.6621 66.3207C36.952 64.6358 35.6473 63.2838 33.9889 62.5137L33.3593 62.2212L37.8454 57.7351L40.6336 60.5231L43.8439 71.6138L40.4929 73.0369ZM45.621 53.8225L43.6894 51.8909L45.1995 50.3808C45.8771 50.9969 46.5761 51.5867 47.2979 52.1455L45.621 53.8225ZM73.5173 48.7988L74.6775 55.4978C69.9551 56.4436 65.0442 56.2959 60.3824 55.0581C55.6029 53.7887 51.1824 51.3874 47.5052 48.0752L52.3266 43.2538C58.1223 48.3259 65.9804 50.3788 73.5173 48.7988ZM53.0799 34.9501L49.7357 31.6059L55.004 26.3376C55.0236 26.3594 55.0419 26.3815 55.0626 26.4025L58.3449 29.6848L53.0799 34.9501ZM59.9449 26.4461L58.6348 25.136L67.7574 16.0136L69.5585 16.8323L59.9449 26.4461Z" fill="white"/>
<path d="M36.9081 49.1339C36.2715 48.497 35.2388 48.497 34.602 49.1339L31.4522 52.2836C30.8154 52.9204 30.8154 53.9529 31.4522 54.5897C31.7708 54.9083 32.188 55.0675 32.6053 55.0675C33.0225 55.0675 33.4399 54.9083 33.7583 54.5897L36.9081 51.44C37.5449 50.8032 37.5449 49.7709 36.9081 49.1339Z" fill="white"/>
</g>
<defs>
<clipPath id="clip0">
<rect width="92" height="92" fill="white"/>
</clipPath>
</defs>
</svg>
