<svg width="90" height="90" viewBox="0 0 90 90" fill="none" xmlns="http://www.w3.org/2000/svg">
<g clip-path="url(#clip0)">
<path d="M83.7321 0.416207C83.1769 -0.138736 82.2771 -0.138736 81.7222 0.416207L69.3283 12.81L68.7254 12.2071C68.1703 11.6522 67.2705 11.6522 66.7155 12.2071L58.3779 20.5448H51.1587L48.4487 17.8348C48.182 17.5683 47.8208 17.4185 47.4435 17.4185C47.0665 17.4185 46.7053 17.5683 46.4384 17.8348L24.0178 40.2552C23.4629 40.8101 23.4629 41.7101 24.0178 42.2649L27.1443 45.3912C27.4109 45.6578 27.7722 45.8074 28.1494 45.8074C28.5264 45.8074 28.8877 45.6576 29.1545 45.3912L39.0999 35.4458H43.4767L7.29203 71.6303C6.2463 72.676 5.73021 74.1199 5.87575 75.5915C6.02148 77.0633 6.81091 78.378 8.04138 79.1982L23.0109 89.178C23.8394 89.7301 24.7888 90 25.7333 90C27.0047 90 28.2677 89.5109 29.2153 88.5635C31.2736 86.5051 32.1627 83.5674 31.5931 80.7055C30.6949 76.1909 31.896 71.8261 33.8621 68.0383L47.7619 76.0338C47.9793 76.1591 48.224 76.2231 48.4705 76.2231C48.6113 76.2231 48.7524 76.2022 48.8895 76.16C49.2664 76.0436 49.5782 75.7757 49.75 75.4205L54.261 66.0859C54.5787 65.429 54.3468 64.638 53.7249 64.2564L41.9224 57.0121L45.8416 49.8133C46.0807 49.374 46.488 49.3879 46.6518 49.4143C46.8167 49.4408 47.2101 49.556 47.3001 50.051C48.1085 54.5039 50.1326 58.3761 53.3159 61.5595C53.5825 61.8262 53.9438 61.9758 54.321 61.9758C54.698 61.9758 55.0593 61.826 55.3261 61.5595L63.6334 53.2523C63.9399 52.9457 64.0897 52.5158 64.0401 52.0851L61.7963 32.5797L68.4345 25.9413L69.4834 26.9902L68.6126 27.861C68.3461 28.1275 68.1965 28.4889 68.1965 28.8658C68.1965 29.2426 68.3463 29.6042 68.6126 29.8705L76.4517 37.7095C76.7184 37.9762 77.0796 38.1258 77.4568 38.1258C77.8341 38.1258 78.1951 37.976 78.462 37.7095L82.0347 34.1366C82.5897 33.5816 82.5897 32.6816 82.0347 32.1269L74.1957 24.2877C73.9291 24.0212 73.5678 23.8714 73.1906 23.8714C72.8136 23.8714 72.4523 24.0212 72.1855 24.2877L71.4933 24.9799L69.4396 22.9263L67.9434 21.43L71.9406 17.4327C72.2071 17.1663 72.3567 16.8049 72.3567 16.428C72.3567 16.0511 72.2069 15.6895 71.9406 15.4232L71.3377 14.8203L83.7315 2.42645C84.2868 1.87098 84.2868 0.971149 83.7321 0.416207ZM73.1906 27.3024L79.0199 33.1316L77.4568 34.6948L71.6274 28.8656L73.1906 27.3024ZM28.1492 42.3767L27.0327 41.2599L47.4434 20.8492L48.5599 21.9658L28.1492 42.3767ZM41.9421 32.6036L51.1585 23.387H55.5353L46.3189 32.6036H41.9421ZM51.143 66.0061L47.8556 72.8083L35.2874 65.5788C36.8668 63.1094 38.6768 60.974 40.2532 59.322L51.143 66.0061ZM59.7766 53.0893C59.429 53.436 58.9558 53.5729 58.4758 53.4657C57.9957 53.3579 57.6255 53.0306 57.4597 52.5674L54.2259 43.5346C54.1415 43.2992 54.2013 43.0331 54.3783 42.8562L58.5949 38.6394C58.8544 38.3799 59.1513 38.4448 59.2664 38.4845C59.3846 38.5253 59.5707 38.6262 59.6575 38.8554L61.1383 51.7279L59.7766 53.0893ZM59.3014 31.0548C58.9949 31.3613 58.8451 31.7913 58.8947 32.222L59.2849 35.6131C58.2944 35.5446 57.314 35.9007 56.5854 36.6292L52.3688 40.846C51.4185 41.7959 51.0973 43.2273 51.5501 44.4926L54.7842 53.5255C55.1676 54.5961 55.9464 55.4453 56.944 55.9221L54.3577 58.5083C52.1459 55.9521 50.7147 52.9426 50.0975 49.5426C49.8185 48.0071 48.6436 46.8551 47.1041 46.6076C45.5655 46.3604 44.0912 47.085 43.3462 48.4538L38.8795 56.6584C34.2059 61.3662 31.06 66.1998 29.5282 71.0278C28.1274 75.4428 28.3624 79.0287 28.8063 81.2597C29.1898 83.1888 28.5918 85.1677 27.2063 86.5534C26.5094 87.2504 25.4084 87.3594 24.5884 86.8129L9.61885 76.833C9.09959 76.4869 8.76648 75.9322 8.70513 75.3111C8.64379 74.6901 8.86141 74.081 9.30279 73.6396L45.032 37.9102L46.0761 38.9544C46.6564 39.5345 47.4275 39.8539 48.2479 39.8539C49.0683 39.8539 49.8394 39.5343 50.4197 38.9542L65.9344 23.4396L66.4257 23.9309L59.3014 31.0548ZM48.4091 36.9447C48.3537 37 48.2904 37.0118 48.2472 37.0118C48.2038 37.0118 48.1405 37 48.0853 36.9447L47.0413 35.9005L67.7203 15.2218L68.9262 16.4276L48.4091 36.9447Z" fill="white"/>
</g>
<defs>
<clipPath id="clip0">
<rect width="90" height="90" fill="white"/>
</clipPath>
</defs>
</svg>
