<svg width="90" height="90" viewBox="0 0 90 90" fill="none" xmlns="http://www.w3.org/2000/svg">
<g clip-path="url(#clip0)">
<path d="M84.797 57.7356L66.945 39.8838C67.1046 39.6423 67.1916 39.3577 67.1916 39.0638C67.1916 38.6693 67.035 38.2911 66.7561 38.0121L65.5409 36.7971C63.595 34.8512 63.595 31.6854 65.5409 29.7397L69.3735 25.9071C69.9542 25.3263 69.9542 24.3848 69.3735 23.8041L67.0004 21.431L68.7297 19.7017L75.2157 26.1875C75.7965 26.7683 76.7382 26.7683 77.3188 26.1875L79.0948 24.4114C79.5789 23.9273 79.6702 23.1753 79.3153 22.5894L74.2338 14.1974L82.9608 5.47042C83.2398 5.19163 83.3964 4.81335 83.3964 4.4189C83.3964 4.02444 83.2398 3.64616 82.9608 3.36737L80.0288 0.435342C79.448 -0.145439 78.5063 -0.145439 77.9257 0.435342L70.4359 7.9252L66.9765 2.21179C66.7431 1.8263 66.3475 1.56755 65.9009 1.50778C65.4539 1.44837 65.0046 1.59444 64.6783 1.9054L5.22789 58.5521C4.73306 59.0234 4.62355 59.7712 4.96158 60.365L9.16802 67.7495C9.38353 68.1278 9.7539 68.3927 10.1816 68.4743L22.4268 70.8111V70.8108C22.5188 70.8282 22.6123 70.8375 22.706 70.8375C22.9438 70.8375 23.1832 70.7805 23.4037 70.6636L27.3862 68.5469L28.3551 70.1277C28.7225 70.7271 29.4595 70.9873 30.1218 70.7517C31.1618 70.3815 32.2724 70.4608 33.2492 70.9751C34.2258 71.4895 34.9198 72.3603 35.203 73.4269L39.3092 88.8943C39.4228 89.3218 39.7207 89.6767 40.1222 89.8623C40.3203 89.9539 40.5335 89.9998 40.7466 89.9998C40.9653 89.9998 41.1841 89.9516 41.3863 89.8553L55.3141 83.2185C55.9794 82.9014 56.312 82.1451 56.0963 81.4406L49.5241 59.9716L51.1015 59.5012C52.8521 58.9791 54.46 58.0204 55.7516 56.7286C57.8204 54.6598 58.9609 51.9095 58.9835 49.0287L76.2437 66.289C76.5225 66.5679 76.9008 66.7246 77.2952 66.7246C77.6897 66.7246 78.0679 66.5679 78.3467 66.289L84.7967 59.839C85.3778 59.2583 85.3778 58.3166 84.797 57.7356ZM78.9776 3.59044L79.8062 4.41907L72.6476 11.5778L72.0225 10.5454L78.9776 3.59044ZM11.4131 65.6811L8.1216 59.903L65.3908 5.33524L75.8598 22.6254L63.3907 10.1564C62.8101 9.57561 61.8685 9.57561 61.2877 10.1564L12.3999 59.0447C11.8192 59.6255 11.8192 60.5671 12.3999 61.1477L18.2353 66.9831L11.4131 65.6811ZM66.6267 17.5988L64.8974 19.3281L64.0687 18.4995L65.7981 16.7702L66.6267 17.5988ZM63.6947 14.6668L61.9653 16.3961L60.6101 15.0408L62.3394 13.3115L63.6947 14.6668ZM47.5235 30.0902L41.1205 36.4934L40.1389 35.5118L42.1189 33.5318L46.5421 29.1086L47.5235 30.0902ZM22.9792 67.5207L15.5547 60.0962L38.0357 37.6152L40.0688 39.6483C40.359 39.9385 40.7397 40.0839 41.1203 40.0839C41.5009 40.0839 41.8816 39.9387 42.1718 39.6483L50.6782 31.1419C50.9572 30.8631 51.1138 30.4848 51.1138 30.0903C51.1138 29.6959 50.9572 29.3176 50.6782 29.0388L48.6451 27.0057L58.5068 17.1441L66.2187 24.8559L52.5944 38.4802C52.4529 38.6215 52.3415 38.7903 52.2666 38.9759L49.8561 44.9576L32.1868 62.6266L22.9792 67.5207ZM52.8769 81.0848L41.7241 86.3994L38.0774 72.6635C37.5855 70.811 36.3306 69.2359 34.6347 68.343C33.3056 67.643 31.7846 67.4038 30.3203 67.6418L30.0174 67.1478L33.7795 65.1483C33.9098 65.0791 34.0288 64.991 34.133 64.8868L42.8029 56.2169L46.35 59.764L52.8769 81.0848ZM53.6486 54.6254C52.705 55.569 51.5302 56.2694 50.2514 56.6507L48.0883 57.2958L44.9061 54.1137L46.5548 52.465C46.9191 53.4053 47.5442 54.4146 48.5518 55.4222C48.842 55.7127 49.2228 55.8578 49.6033 55.8578C49.9839 55.8578 50.3646 55.7126 50.6549 55.4222C51.2356 54.8414 51.2356 53.8999 50.6549 53.3191C49.0575 51.7216 49.0428 50.4252 49.1294 49.8905L51.5761 47.4438L56.0011 48.5665C56.1039 50.8271 55.2635 53.0105 53.6486 54.6254ZM56.9313 45.7338L53.1378 44.7712L54.9119 40.3683L61.1557 34.1242C61.3431 35.8699 62.1026 37.5651 63.4377 38.9003L56.9313 45.7338ZM77.2956 63.1342L60.5167 46.355L64.8633 42.0085L81.6421 58.7873L77.2956 63.1342Z" fill="white"/>
<path d="M48.1612 40.1923C46.705 38.7363 44.3356 38.7363 42.8798 40.1923L37.8321 45.2401C37.2513 45.8209 37.2513 46.7625 37.8321 47.3431C38.1226 47.6334 38.5032 47.7787 38.8838 47.7787C39.2643 47.7787 39.6451 47.6335 39.9353 47.3431L42.3975 44.881C42.5365 45.0919 42.6968 45.2911 42.8796 45.4737C43.585 46.1791 44.5228 46.5678 45.5202 46.5678C46.5176 46.5678 47.4556 46.1793 48.1608 45.4737C49.6172 44.0177 49.6172 41.6485 48.1612 40.1923ZM46.0581 43.3705C45.7711 43.6575 45.2703 43.6579 44.9832 43.3705C44.8396 43.2269 44.7605 43.0361 44.7605 42.8331C44.7605 42.6301 44.8396 42.4392 44.9832 42.2956C45.1316 42.1474 45.326 42.0732 45.5206 42.0732C45.7152 42.0732 45.9097 42.1474 46.0581 42.2956C46.3543 42.5919 46.3543 43.0741 46.0581 43.3705Z" fill="white"/>
<path d="M50.6626 78.5702C50.3091 77.8288 49.4217 77.514 48.6803 77.8675L42.8995 80.6221C42.1579 80.9755 41.8434 81.8628 42.1968 82.6044C42.4518 83.1395 42.9848 83.4522 43.5404 83.4522C43.7547 83.4522 43.9727 83.4056 44.1791 83.3072L49.9598 80.5525C50.7014 80.1992 51.0159 79.3119 50.6626 78.5702Z" fill="white"/>
<path d="M49.1199 73.3826C48.7666 72.641 47.8793 72.3263 47.1377 72.6796L41.3566 75.4343C40.615 75.7876 40.3005 76.675 40.6538 77.4166C40.9089 77.9517 41.4418 78.2646 41.9975 78.2646C42.2117 78.2646 42.4297 78.218 42.6361 78.1195L48.4172 75.3649C49.1586 75.0116 49.4733 74.1242 49.1199 73.3826Z" fill="white"/>
<path d="M47.577 68.1944C47.2238 67.4527 46.3363 67.1381 45.5947 67.4914L39.8136 70.2461C39.072 70.5994 38.7575 71.4867 39.1108 72.2284C39.3659 72.7634 39.8989 73.0763 40.4545 73.0763C40.6688 73.0763 40.8867 73.0297 41.0931 72.9313L46.8742 70.1766C47.6156 69.8233 47.9303 68.936 47.577 68.1944Z" fill="white"/>
<path d="M33.0809 59.5272C33.9022 59.5272 34.568 58.8614 34.568 58.0401C34.568 57.2188 33.9022 56.553 33.0809 56.553C32.2596 56.553 31.5938 57.2188 31.5938 58.0401C31.5938 58.8614 32.2596 59.5272 33.0809 59.5272Z" fill="white"/>
</g>
<defs>
<clipPath id="clip0">
<rect width="90" height="90" fill="white"/>
</clipPath>
</defs>
</svg>
