<svg width="88" height="88" viewBox="0 0 88 88" fill="none" xmlns="http://www.w3.org/2000/svg">
<g clip-path="url(#clip0)">
<path d="M83.8029 78.7994L67.1821 62.1786L68.1614 61.1992C68.7587 60.602 68.7587 59.6338 68.1614 59.0367L56.6479 47.5231L64.2172 39.9538C64.8145 39.3565 64.8145 38.3885 64.2172 37.7912L58.9546 32.5286L70.7052 20.7778C71.3024 20.1806 71.3024 19.2126 70.7052 18.6153L67.1728 15.0829L74.8865 7.36918C75.1732 7.0825 75.3343 6.69337 75.3343 6.28792C75.3343 5.88246 75.1732 5.49334 74.8865 5.20665L70.1289 0.447949C69.5314 -0.149316 68.5633 -0.149316 67.9662 0.447949L60.2526 8.16153L57.5851 5.49437C57.2982 5.20751 56.9093 5.04646 56.5036 5.04646C56.098 5.04646 55.7092 5.20751 55.4222 5.49437L54.341 6.57564L51.8178 4.05251C51.4806 3.71512 51.004 3.55442 50.5319 3.61836C50.059 3.68212 49.6429 3.96314 49.4069 4.37787L45.2256 11.731C44.8852 12.3295 44.9868 13.0814 45.4736 13.5682L46.4106 14.5053L24.7783 36.138C23.9521 35.6751 23.0174 35.4274 22.0444 35.4274C20.5465 35.4274 19.1384 36.0106 18.0793 37.0697L5.39146 49.7575C4.33254 50.8166 3.74902 52.2248 3.74902 53.7227C3.74902 55.2204 4.33237 56.6284 5.39146 57.6875L15.7095 68.0051L21.8177 76.3937C22.0807 76.7549 22.4889 76.9834 22.9349 77.0183C22.9746 77.0214 23.0145 77.0229 23.054 77.0229C23.4579 77.0229 23.8476 76.8629 24.1355 76.575L29.4699 71.2403C30.0672 70.6431 30.0672 69.6749 29.4699 69.0778L25.9376 65.5454L34.6059 56.8771C38.7388 57.232 42.4816 59.6465 44.4815 63.294C46.8305 67.5784 49.607 71.3366 52.7343 74.4639C53.033 74.7626 53.4243 74.9118 53.8157 74.9118C54.2071 74.9118 54.5984 74.7626 54.897 74.4639L58.4295 70.9315L75.0502 87.5521C75.3489 87.8509 75.7402 88 76.1316 88C76.523 88 76.9143 87.8509 77.213 87.5521L83.8031 80.9621C84.0898 80.6754 84.2508 80.2863 84.2508 79.8808C84.2506 79.475 84.0896 79.0861 83.8029 78.7994ZM60.9733 38.8718L54.4851 45.3599L50.3039 41.1787L51.1688 40.3138L52.6825 41.8275C52.9812 42.1263 53.3726 42.2754 53.764 42.2754C54.1553 42.2754 54.5467 42.1263 54.8452 41.8275C55.4427 41.2303 55.4427 40.2619 54.8454 39.6648L53.3314 38.1508L56.7917 34.6906L60.9733 38.8718ZM69.0473 3.69209L71.6427 6.2874L65.0104 12.9197L62.4151 10.3244L69.0473 3.69209ZM51.0738 7.63404L52.1781 8.73834L48.5735 12.3427L48.4606 12.2298L51.0738 7.63404ZM56.5035 8.73834L61.6939 13.9286L41.9414 33.6815L38.5532 30.2934C37.9558 29.6961 36.9876 29.6961 36.3905 30.2934L28.893 37.7909C28.6063 38.0776 28.4452 38.4667 28.4452 38.8722C28.4452 39.2776 28.6063 39.6667 28.893 39.9534L32.2815 43.3416L30.081 45.5421L19.9993 45.2425L56.5035 8.73834ZM39.7788 35.8444L34.4442 41.1791L32.1373 38.8722L37.4719 33.5375L39.7788 35.8444ZM7.55468 55.5249C7.07291 55.0435 6.80771 54.4035 6.80771 53.7227C6.80771 53.0419 7.07291 52.4018 7.55434 51.9204L20.2422 39.2326C20.7234 38.7512 21.3636 38.4861 22.0444 38.4861C22.1656 38.4861 22.2845 38.4973 22.4024 38.5138L9.57266 51.3437C8.9754 51.941 8.9754 52.9092 9.57266 53.5063L18.8933 62.8269L16.8748 64.8454L7.55468 55.5249ZM26.2258 70.1594L23.2372 73.1478L18.8809 67.1648L21.0562 64.9896L26.2258 70.1594ZM23.7747 63.3827L12.8168 52.425L17.0274 48.2144L30.6499 48.619C30.665 48.6194 30.6801 48.6197 30.6954 48.6197C31.1004 48.6197 31.4897 48.459 31.7769 48.1718L63.8568 16.0915L63.929 16.1635C63.929 16.1637 63.9292 16.1637 63.9292 16.1637L67.4614 19.6959L23.7747 63.3827ZM53.8362 71.1989C51.3422 68.5067 49.1015 65.3598 47.1629 61.8237C45.0645 57.9962 41.4266 55.2591 37.2564 54.2263L39.4901 51.9926L56.2663 68.7688L53.8362 71.1989ZM58.4292 66.6057L41.653 49.8297L48.0966 43.3863L48.1412 43.3416L64.9174 60.1176L58.4292 66.6057ZM76.1313 84.308L60.5919 68.7686L65.0192 64.3413L80.5588 79.8807L76.1313 84.308Z" fill="white"/>
<path d="M63.4229 21.9461C64.2675 21.9461 64.9522 21.2614 64.9522 20.4168C64.9522 19.5722 64.2675 18.8875 63.4229 18.8875C62.5783 18.8875 61.8936 19.5722 61.8936 20.4168C61.8936 21.2614 62.5783 21.9461 63.4229 21.9461Z" fill="white"/>
</g>
<defs>
<clipPath id="clip0">
<rect width="88" height="88" fill="white"/>
</clipPath>
</defs>
</svg>
