<svg width="90" height="90" viewBox="0 0 90 90" fill="none" xmlns="http://www.w3.org/2000/svg">
<g clip-path="url(#clip0)">
<path d="M13.7382 89.5441C14.0252 89.8378 14.4199 90.0017 14.8301 90.0003H14.8531C15.2722 89.9936 15.6691 89.8141 15.9517 89.5047L20.0531 85.0065L32.2965 71.5844L34.2289 69.7321L37.1293 68.8204C37.3534 68.7499 37.5588 68.6283 37.728 68.4651L41.003 65.2961C41.6068 64.7131 41.6232 63.7509 41.0394 63.1479L37.7205 59.7052C37.5425 59.5212 37.4542 59.2675 37.4802 59.0123C37.5054 58.7572 37.6419 58.5265 37.8526 58.3811L38.3489 58.0391C39.5736 59.0361 41.1024 59.5857 42.6817 59.5961C43.4035 59.5954 44.1208 59.4849 44.8092 59.2683C45.6096 59.016 46.0539 58.163 45.8025 57.3626C45.551 56.5622 44.6979 56.1178 43.8975 56.3693C42.9614 56.6549 41.9518 56.5829 41.0653 56.1675L43.1394 54.7373C43.2291 54.6758 43.3122 54.6046 43.3872 54.5252L62.7355 33.8409L70.0689 47.1843L72.7305 45.7215L67.0728 35.4224L77.1754 41.422L78.728 38.8087L64.1894 30.1778L83.8041 11.2048L88.1792 6.9803C88.3239 6.8401 88.4389 6.67245 88.5182 6.48774C88.5776 6.33642 88.6124 6.17619 88.6213 6.01373C88.6213 5.97887 88.6429 5.94845 88.6429 5.91359C88.6429 5.87873 88.6243 5.83718 88.6213 5.79787C88.6169 5.64283 88.5887 5.48928 88.5375 5.3424C88.4648 5.15473 88.355 4.98412 88.2156 4.83946L83.9829 0.464331C83.7032 0.173546 83.319 0.00738279 82.9162 -3.52074e-05C82.5126 -0.00671139 82.1232 0.146841 81.8331 0.427241L56.7195 24.7212L46.8914 34.2281L44.7803 32.0435L47.9218 29.0051L53.1826 25.9667C53.2931 25.9051 53.3948 25.8302 53.4868 25.7434L57.8545 21.5188C58.4576 20.9358 58.4739 19.9737 57.8908 19.3706L51.5544 12.8197C50.9713 12.2167 50.0092 12.2003 49.4061 12.7834L45.0339 17.0065C44.9442 17.0925 44.8656 17.1897 44.801 17.295L41.5883 22.4527L26.3821 37.1574L21.1228 40.1959C21.013 40.2574 20.9106 40.3323 20.8194 40.4191L16.4576 44.6459C15.8545 45.229 15.8389 46.1911 16.4227 46.7934L22.7592 53.3442C23.0396 53.6306 23.4216 53.7945 23.8229 53.8004H23.8467C24.2435 53.8019 24.6248 53.6491 24.9104 53.3732L29.2781 49.1471C29.3671 49.0611 29.445 48.9647 29.5103 48.8601L32.7282 43.7098L36.0522 40.4933L38.1641 42.6779L28.3375 52.1841C27.8657 52.6373 27.7374 53.342 28.0186 53.9325L28.4532 54.8442C29.1505 56.2996 28.8382 58.0376 27.6788 59.16C26.5186 60.2823 24.771 60.5367 23.3393 59.792L22.4476 59.3269C21.898 59.0398 21.2281 59.1154 20.7571 59.5182L2.22841 75.3215C1.90943 75.5938 1.71731 75.9854 1.69802 76.4046C1.67799 76.8237 1.83229 77.2324 2.12382 77.5336L13.7382 89.5441ZM82.862 3.66816L84.9754 5.85276L82.7908 7.96466L80.6789 5.78155L82.862 3.66816ZM78.4869 7.90087L80.5995 10.0855L62.0367 28.0333L60.6281 26.5764L59.9248 25.8487L78.4869 7.90087ZM50.4194 16.0221L54.6425 20.3898L52.4594 22.5017L48.2348 18.134L50.4194 16.0221ZM46.3462 20.5537L49.9788 24.308L47.2668 25.8739L45.979 24.5431L44.6905 23.2109L46.3462 20.5537ZM42.7381 25.5676L44.8515 27.7507L42.6669 29.8618L40.555 27.6795L42.7381 25.5676ZM44.7135 36.3429L40.3406 40.5638L38.2279 38.3807L42.5957 34.1569L44.7135 36.3429ZM23.8867 50.1345L19.6629 45.7727L21.846 43.6593L26.0698 48.027L23.8867 50.1345ZM27.9577 45.6028L24.3266 41.8471L27.0386 40.2812L29.4317 42.7558L29.6119 42.9442L27.9577 45.6028ZM31.5658 40.589L30.5103 39.5L29.4539 38.4074L31.8166 36.1256L33.9285 38.3087L31.5658 40.589ZM36.1235 36.1835L34.0115 33.9989L38.3778 29.7743L40.4912 31.9589L36.1235 36.1835ZM21.9417 62.4899C24.5195 63.8236 27.6595 63.3719 29.7558 61.3653C31.8529 59.358 32.4419 56.241 31.2224 53.6076L57.7402 27.9614L60.9092 31.2386L60.9596 31.292L41.2767 52.3309L36.1279 55.8834C35.1821 56.5355 34.5709 57.571 34.4574 58.7149C34.3431 59.858 34.7385 60.9937 35.5374 61.82L37.7992 64.1597L35.8742 66.0223L32.9745 66.934C32.7497 67.0045 32.5443 67.1269 32.3759 67.2908L30.126 69.471L23.0055 77.2754L20.4314 74.6146L18.2513 76.7206L20.9559 79.5172L18.9048 81.7655L10.0633 72.6266L21.9417 62.4899ZM7.74814 74.6072L16.8522 84.0266L14.8012 86.2705L5.43076 76.5841L7.74814 74.6072Z" fill="white"/>
<path d="M14.0273 72.3605L16.2112 70.2478L18.3238 72.4317L16.14 74.5443L14.0273 72.3605Z" fill="white"/>
<path d="M38.0508 49.1234L40.2346 47.0107L42.3465 49.1946L40.1627 51.3072L38.0508 49.1234Z" fill="white"/>
<path d="M42.418 44.8973L44.6018 42.7847L46.7145 44.9685L44.5306 47.0812L42.418 44.8973Z" fill="white"/>
</g>
<defs>
<clipPath id="clip0">
<rect width="90" height="90" fill="white"/>
</clipPath>
</defs>
</svg>
