<svg width="40" height="40" viewBox="0 0 40 40" fill="none" xmlns="http://www.w3.org/2000/svg">
<g clip-path="url(#clip0)">
<path d="M15.22 36.54C8.54399 36.54 3.2675 35.3736 0.743086 33.3405L0.693952 33.3008L0.649397 33.2563C0.0497265 32.6563 -0.146807 31.8692 0.110762 31.0972L0.13426 31.0331C0.44676 30.2515 1.21245 29.7254 2.04222 29.7205C3.74998 29.6909 5.24412 29.4874 6.60002 29.0921C4.43724 28.0863 2.93486 26.3447 2.041 23.8239C1.7404 23.0378 1.9998 22.1662 2.69255 21.6465C2.86345 21.518 3.05662 21.4209 3.26109 21.3559C2.05931 19.9686 1.17155 18.3899 0.674421 16.7203L0.658857 16.6684L0.648176 16.6153C0.479414 15.7709 0.856916 14.9027 1.54875 14.5289C1.83897 14.3622 2.15422 14.2759 2.47069 14.2685C2.1295 13.5337 1.88139 12.7793 1.7343 12.0203C1.32597 9.91704 1.66289 7.80858 2.73527 5.75352L2.98338 5.25731C3.18205 4.86028 3.56169 4.58134 3.99931 4.51024C4.43693 4.43944 4.88554 4.58409 5.19896 4.89751L5.65092 5.35008C9.22148 9.09337 12.4197 10.8695 17.9492 12.0847C18.1961 9.9622 19.1137 7.98924 20.5942 6.43651C22.3559 4.58897 24.7085 3.55229 27.2186 3.51689H27.2351C29.0664 3.51689 31.3382 4.56242 32.7121 5.29973C33.8907 4.91399 35.3106 4.31676 36.784 3.68535C37.4734 3.36186 38.3233 3.50987 38.8653 4.05186C39.3966 4.58318 39.544 5.33238 39.2621 6.06053C39.1549 6.35869 39.0335 6.65135 38.8983 6.93761C39.1 7.03008 39.2846 7.1555 39.4406 7.31145C39.9121 7.78294 40.1086 8.52086 39.9411 9.19164L39.9231 9.25542C39.3585 11.0749 38.2739 12.5568 36.8396 13.487C36.6 26.2436 26.9937 36.54 15.22 36.54ZM2.99254 32.034C5.37138 33.3799 9.90477 34.1941 15.22 34.1941C20.3302 34.1941 25.1526 32.0002 28.7985 28.0164C32.4743 24 34.4986 18.6664 34.4986 12.9981V12.9343C34.4986 12.421 34.7812 11.9526 35.2359 11.7115C36.1584 11.2229 36.9055 10.3907 37.3913 9.32652C36.8902 9.40556 36.3809 9.20445 36.0687 8.78514C35.7058 8.29778 35.7019 7.63951 36.0586 7.14787C36.2512 6.88237 36.4258 6.60619 36.5814 6.32054C35.3091 6.8549 34.1009 7.33403 33.052 7.65233C32.6709 7.76768 32.2461 7.72252 31.8979 7.52812C30.0305 6.48778 28.2913 5.86583 27.2427 5.86278C23.3734 5.92198 20.2273 9.23589 20.2273 13.2538C20.2273 13.6692 20.043 14.0586 19.7223 14.3226C19.4012 14.5862 18.9837 14.6918 18.576 14.6113C12.2003 13.3551 8.42222 11.4716 4.49339 7.52354C3.93034 8.87273 3.77653 10.2317 4.03685 11.5735C4.30082 12.9328 5.00303 14.2948 6.06779 15.5121C6.47245 15.9742 6.52617 16.6352 6.20146 17.1567C5.87797 17.6764 5.26304 17.9194 4.67192 17.761C4.20988 17.6371 3.78508 17.4744 3.38225 17.2654C4.20286 19.0479 5.6143 20.6965 7.38859 21.9123C7.90281 22.2648 8.11766 22.9218 7.91136 23.5102C7.70475 24.0995 7.12767 24.4788 6.50389 24.4324C5.82426 24.3821 5.22215 24.253 4.66795 24.0354C5.66282 26.0614 7.25248 27.1763 9.70152 27.6023C10.2847 27.7039 10.7388 28.1644 10.8316 28.7482C10.9247 29.332 10.6357 29.9106 10.1129 30.188C8.02549 31.2946 5.744 31.8885 2.99254 32.034Z" fill="white"/>
</g>
<defs>
<clipPath id="clip0">
<rect width="40" height="40" fill="white"/>
</clipPath>
</defs>
</svg>
