<svg width="16" height="16" viewBox="0 0 16 16" fill="none" xmlns="http://www.w3.org/2000/svg">
<g clip-path="url(#clip0)">
<path d="M6.088 14.616C3.4176 14.616 1.307 14.1494 0.297234 13.3362L0.277581 13.3203L0.259759 13.3025C0.0198906 13.0625 -0.0587227 12.7477 0.0443046 12.4389L0.053704 12.4132C0.178704 12.1006 0.484978 11.8902 0.816887 11.8882C1.49999 11.8764 2.09765 11.7949 2.64001 11.6369C1.77489 11.2345 1.17394 10.5379 0.816399 9.52956C0.69616 9.21511 0.79992 8.86647 1.07702 8.65859C1.14538 8.6072 1.22265 8.56838 1.30444 8.54238C0.823723 7.98745 0.468621 7.35598 0.269768 6.68813L0.263543 6.66738L0.25927 6.64614C0.191766 6.30837 0.342766 5.96108 0.6195 5.81154C0.735589 5.74489 0.861687 5.71035 0.988274 5.70742C0.851799 5.41347 0.752556 5.11171 0.693718 4.80812C0.530388 3.96682 0.665154 3.12343 1.09411 2.30141L1.19335 2.10292C1.27282 1.94411 1.42468 1.83254 1.59972 1.8041C1.77477 1.77578 1.95422 1.83364 2.07958 1.959L2.26037 2.14003C3.68859 3.63735 4.96789 4.3478 7.17968 4.83388C7.27843 3.98488 7.6455 3.1957 8.23766 2.5746C8.94237 1.83559 9.88341 1.42092 10.8874 1.40676H10.894C11.6266 1.40676 12.5353 1.82497 13.0848 2.11989C13.5563 1.96559 14.1243 1.7267 14.7136 1.47414C14.9894 1.34474 15.3293 1.40395 15.5461 1.62075C15.7587 1.83327 15.8176 2.13295 15.7048 2.42421C15.662 2.54348 15.6134 2.66054 15.5593 2.77504C15.64 2.81203 15.7139 2.8622 15.7762 2.92458C15.9648 3.11318 16.0434 3.40834 15.9764 3.67665L15.9692 3.70217C15.7434 4.42995 15.3096 5.02272 14.7358 5.39479C14.64 10.4975 10.7975 14.616 6.088 14.616ZM1.19701 12.8136C2.14855 13.3519 3.96191 13.6776 6.088 13.6776C8.13207 13.6776 10.061 12.8001 11.5194 11.2066C12.9897 9.59999 13.7994 7.46657 13.7994 5.19924V5.17372C13.7994 4.9684 13.9125 4.78102 14.0943 4.68459C14.4634 4.48915 14.7622 4.15627 14.9565 3.73061C14.7561 3.76223 14.5524 3.68178 14.4275 3.51406C14.2823 3.31911 14.2808 3.0558 14.4235 2.85915C14.5005 2.75295 14.5703 2.64247 14.6326 2.52822C14.1236 2.74196 13.6404 2.93361 13.2208 3.06093C13.0683 3.10707 12.8984 3.08901 12.7591 3.01125C12.0122 2.59511 11.3165 2.34633 10.8971 2.34511C9.34936 2.36879 8.09093 3.69435 8.09093 5.30153C8.09093 5.46767 8.0172 5.62343 7.88891 5.72902C7.76049 5.83449 7.5935 5.87673 7.43041 5.8445C4.88012 5.34206 3.36889 4.58864 1.79736 3.00942C1.57214 3.54909 1.51061 4.09267 1.61474 4.62941C1.72033 5.17311 2.00121 5.71791 2.42712 6.20485C2.58898 6.38967 2.61047 6.65407 2.48058 6.86269C2.35119 7.07058 2.10522 7.16774 1.86877 7.10439C1.68395 7.05483 1.51403 6.98977 1.3529 6.90615C1.68115 7.61916 2.24572 8.27858 2.95544 8.76491C3.16113 8.9059 3.24706 9.16872 3.16454 9.40407C3.0819 9.63979 2.85107 9.79152 2.60155 9.77297C2.3297 9.75283 2.08886 9.70119 1.86718 9.61415C2.26513 10.4246 2.90099 10.8705 3.88061 11.0409C4.11388 11.0816 4.29552 11.2658 4.33263 11.4993C4.36987 11.7328 4.25426 11.9643 4.04516 12.0752C3.2102 12.5178 2.2976 12.7554 1.19701 12.8136Z" fill="#EB5929"/>
</g>
<defs>
<clipPath id="clip0">
<rect width="16" height="16" fill="white"/>
</clipPath>
</defs>
</svg>
