<svg width="19" height="19" viewBox="0 0 19 19" fill="none" xmlns="http://www.w3.org/2000/svg">
<g clip-path="url(#clip0)">
<path d="M18.1558 12.4569C17.7425 11.9616 17.2756 11.5194 16.824 11.0917C16.6653 10.9413 16.5011 10.7859 16.343 10.6315C16.343 10.6315 16.343 10.6315 16.3429 10.6314C16.1303 10.424 16.0262 10.2768 16.0153 10.1681C16.0046 10.0612 16.0777 9.90264 16.2457 9.66826C16.4969 9.31572 16.7646 8.96259 17.0236 8.6211C17.2538 8.31755 17.4919 8.00364 17.72 7.68795L17.7712 7.61707C18.2164 7.00098 18.6766 6.36392 18.9232 5.58759C18.9937 5.365 19.0668 5.03562 18.8904 4.74646C18.7139 4.45723 18.3867 4.37151 18.1561 4.33225C18.0435 4.31295 17.9366 4.31135 17.8371 4.31135L14.9498 4.30879C14.4506 4.30048 14.1043 4.53709 13.9156 5.01224C13.7645 5.39172 13.5861 5.83151 13.3795 6.24869C12.9841 7.05408 12.4816 7.98171 11.7534 8.75459L11.721 8.78902C11.6715 8.84194 11.5905 8.92848 11.5489 8.94834C11.47 8.89876 11.3789 8.6152 11.3831 8.46665C11.3832 8.46298 11.3832 8.45934 11.3832 8.45571L11.3807 5.11945C11.3807 5.10249 11.3795 5.08553 11.3772 5.06872C11.3125 4.59275 11.1862 4.1156 10.4329 3.96694C10.4087 3.96215 10.3842 3.95978 10.3596 3.95978H7.35615C6.79109 3.95978 6.49221 4.21854 6.25259 4.49909C6.18323 4.58088 5.99895 4.79804 6.09283 5.06353C6.18783 5.33216 6.47091 5.38579 6.56383 5.40338C6.89113 5.4655 7.06039 5.65049 7.11279 6.00414C7.21636 6.6913 7.22905 7.4264 7.15279 8.3164C7.13153 8.55535 7.09197 8.73696 7.02814 8.888C7.01048 8.92982 6.99497 8.95572 6.98413 8.97097C6.96684 8.964 6.93993 8.95064 6.90267 8.92514C6.67267 8.76776 6.49933 8.5231 6.33171 8.28656C5.66218 7.34127 5.099 6.29723 4.60979 5.09433C4.40832 4.6014 4.02958 4.32609 3.54404 4.31896C2.61898 4.30356 1.76342 4.30393 0.929344 4.32015C0.535946 4.32698 0.260074 4.45081 0.109261 4.68827C-0.0417376 4.92618 -0.0362083 5.22952 0.125738 5.59C1.28341 8.16429 2.33457 10.037 3.53395 11.6622C4.37845 12.8063 5.22855 13.6005 6.20925 14.1616C7.23963 14.7511 8.40168 15.04 9.74979 15.04C9.90309 15.04 10.0591 15.0362 10.2171 15.0287C11.0488 14.9908 11.3872 14.66 11.4242 13.8499C11.4449 13.4218 11.4925 13.075 11.6578 12.7736C11.7041 12.6893 11.7563 12.6327 11.7974 12.6224C11.8411 12.6115 11.9186 12.6382 12.0048 12.6942C12.1624 12.7966 12.2981 12.9353 12.4097 13.0572C12.5228 13.181 12.6371 13.3089 12.7478 13.4326C12.9831 13.696 13.2265 13.9683 13.4816 14.2281C14.0584 14.8161 14.7233 15.0857 15.4587 15.0292L18.1011 15.0304C18.1011 15.0304 18.1012 15.0304 18.1012 15.0304C18.1096 15.0304 18.118 15.0302 18.1264 15.0296C18.4311 15.0093 18.6947 14.8406 18.8494 14.5666C19.0357 14.2366 19.0329 13.8186 18.8417 13.4481C18.6422 13.0629 18.3834 12.7313 18.1558 12.4569ZM18.1903 14.1944C18.1539 14.2589 18.1089 14.2707 18.0857 14.2735L15.4439 14.2723C15.4438 14.2723 15.4438 14.2723 15.4436 14.2723C15.4332 14.2723 15.4228 14.2727 15.4124 14.2736C14.892 14.3169 14.4496 14.134 14.0218 13.6979C13.7791 13.4507 13.5417 13.1851 13.3121 12.9283C13.2002 12.8031 13.0846 12.6736 12.9683 12.5464C12.8242 12.389 12.646 12.2081 12.4171 12.0594C12.0744 11.8369 11.7903 11.8437 11.6125 11.8885C11.4365 11.9328 11.1863 12.0594 10.9942 12.4098C10.7454 12.8633 10.6906 13.3525 10.6682 13.8146C10.6553 14.0972 10.6075 14.1719 10.5875 14.1908C10.5614 14.2157 10.4739 14.2594 10.1822 14.2727C8.78038 14.3386 7.60393 14.0876 6.58517 13.5047C5.69892 12.9977 4.92288 12.2693 4.14303 11.2128C2.97686 9.63267 1.95078 7.80288 0.81616 5.2798C0.775042 5.1884 0.762351 5.13136 0.758677 5.10082C0.787622 5.09132 0.844177 5.07882 0.943334 5.077C1.76895 5.061 2.61556 5.06056 3.53228 5.07585C3.65778 5.0777 3.80069 5.11537 3.9089 5.38014C4.42005 6.63701 5.0105 7.73081 5.71409 8.72416C5.9009 8.98782 6.13343 9.31602 6.47517 9.54984C6.78819 9.76419 7.04221 9.75395 7.20022 9.70763C7.3583 9.66128 7.5777 9.53251 7.72547 9.18264C7.8208 8.95713 7.87843 8.70319 7.90697 8.38234C7.9885 7.43037 7.97403 6.6389 7.86151 5.89237C7.78221 5.35751 7.50604 4.97112 7.071 4.77381C7.14827 4.73359 7.23532 4.71681 7.35623 4.71681H10.3204C10.4872 4.75422 10.5202 4.79816 10.5315 4.81319C10.5796 4.87705 10.607 5.02812 10.6238 5.14617L10.6263 8.45166C10.6196 8.76854 10.7736 9.47132 11.298 9.66403C11.3023 9.66562 11.3066 9.66711 11.311 9.66852C11.7884 9.82453 12.1041 9.48754 12.2736 9.30648L12.3039 9.27434C13.1016 8.42769 13.6387 7.43842 14.0584 6.58361C14.2771 6.14219 14.4624 5.68559 14.619 5.29201C14.6974 5.09462 14.7687 5.06212 14.9389 5.06572C14.9412 5.06579 14.9435 5.06579 14.9459 5.06579L17.8369 5.06835C17.9042 5.06835 17.9743 5.06913 18.0288 5.07844C18.1665 5.1019 18.2233 5.13047 18.242 5.14231C18.2439 5.16424 18.2434 5.22733 18.2018 5.35899C17.9921 6.01913 17.5868 6.58001 17.1578 7.17383L17.1066 7.24482C16.8836 7.55328 16.6483 7.86362 16.4207 8.1638C16.1583 8.5097 15.8871 8.86733 15.63 9.22825C15.0802 9.99527 15.1286 10.5043 15.8146 11.1734C15.9767 11.3317 16.1429 11.4891 16.3037 11.6413C16.7594 12.073 17.1899 12.4808 17.5741 12.9411C17.7752 13.1836 18.0032 13.4748 18.1694 13.7957C18.2561 13.9637 18.2348 14.1155 18.1903 14.1944Z" fill="#EB5929"/>
</g>
<defs>
<clipPath id="clip0">
<rect width="19" height="19" fill="white"/>
</clipPath>
</defs>
</svg>
